<svg width="150" height="39" viewBox="0 0 150 39" fill="none" xmlns="http://www.w3.org/2000/svg">
<rect x="1.49147" y="0.957044" width="147.121" height="36.7804" rx="18.3902" stroke="white" stroke-width="1.59915"/>
<g clip-path="url(#clip0_1757_2301)">
<path d="M28.1162 25.2429C27.2982 26.4822 26.4309 27.6914 25.1102 27.7114C23.7896 27.7414 23.3658 26.9219 21.8677 26.9219C20.3598 26.9219 19.8966 27.6914 18.6449 27.7414C17.3538 27.7914 16.3781 26.4222 15.5502 25.2129C13.8649 22.7444 12.5738 18.1971 14.3084 15.139C15.1658 13.6199 16.7033 12.6605 18.3689 12.6305C19.6305 12.6105 20.8329 13.5 21.6115 13.5C22.3802 13.5 23.8389 12.4306 25.3665 12.5905C26.0071 12.6205 27.8009 12.8504 28.954 14.5693C28.8653 14.6293 26.8153 15.8486 26.835 18.377C26.8646 21.3952 29.4468 22.4046 29.4763 22.4146C29.4468 22.4846 29.0624 23.8538 28.1162 25.2429ZM22.4886 9.25252C23.2081 8.42302 24.4006 7.79339 25.3862 7.75342C25.5143 8.92272 25.0511 10.102 24.3612 10.9415C23.6812 11.791 22.5576 12.4506 21.4538 12.3607C21.3059 11.2113 21.8579 10.0121 22.4886 9.25252Z" fill="white"/>
</g>
<path d="M45.1674 8.88576C45.8774 8.88576 46.4979 9.02329 47.0288 9.29834C47.5661 9.567 47.9787 9.95719 48.2666 10.4689C48.5608 10.9742 48.7079 11.5659 48.7079 12.244C48.7079 12.922 48.5608 13.5105 48.2666 14.0094C47.9787 14.5084 47.5661 14.8922 47.0288 15.1608C46.4979 15.4231 45.8774 15.5542 45.1674 15.5542H42.9894V8.88576H45.1674ZM45.1674 14.6619C45.9478 14.6619 46.5459 14.4508 46.9617 14.0286C47.3774 13.6064 47.5853 13.0116 47.5853 12.244C47.5853 11.47 47.3774 10.8655 46.9617 10.4305C46.5459 9.99557 45.9478 9.77808 45.1674 9.77808H44.0832V14.6619H45.1674ZM52.0852 15.6406C51.5862 15.6406 51.1353 15.5286 50.7323 15.3047C50.3293 15.0745 50.0127 14.7546 49.7824 14.3452C49.5521 13.9295 49.437 13.4497 49.437 12.906C49.437 12.3687 49.5553 11.8922 49.792 11.4764C50.0287 11.0606 50.3517 10.7408 50.7611 10.5169C51.1705 10.293 51.6278 10.1811 52.1332 10.1811C52.6385 10.1811 53.0958 10.293 53.5052 10.5169C53.9146 10.7408 54.2376 11.0606 54.4743 11.4764C54.711 11.8922 54.8293 12.3687 54.8293 12.906C54.8293 13.4433 54.7078 13.9199 54.4647 14.3357C54.2216 14.7514 53.889 15.0745 53.4668 15.3047C53.0511 15.5286 52.5905 15.6406 52.0852 15.6406ZM52.0852 14.6907C52.3666 14.6907 52.6289 14.6235 52.872 14.4892C53.1214 14.3548 53.3229 14.1533 53.4764 13.8847C53.63 13.616 53.7067 13.2898 53.7067 12.906C53.7067 12.5222 53.6332 12.1992 53.486 11.9369C53.3389 11.6683 53.1438 11.4668 52.9007 11.3325C52.6577 11.1981 52.3954 11.131 52.114 11.131C51.8325 11.131 51.5703 11.1981 51.3272 11.3325C51.0905 11.4668 50.9018 11.6683 50.7611 11.9369C50.6204 12.1992 50.55 12.5222 50.55 12.906C50.55 13.4753 50.6939 13.9167 50.9818 14.2301C51.276 14.5371 51.6438 14.6907 52.0852 14.6907ZM63.0108 10.2674L61.3701 15.5542H60.2187L59.1537 11.6491L58.0887 15.5542H56.9373L55.2869 10.2674H56.4L57.5034 14.518L58.626 10.2674H59.7678L60.8424 14.4988L61.9362 10.2674H63.0108ZM66.4956 10.1811C66.9114 10.1811 67.2824 10.2674 67.6086 10.4401C67.9413 10.6128 68.2003 10.8687 68.3858 11.2077C68.5713 11.5467 68.6641 11.9561 68.6641 12.4359V15.5542H67.5799V12.599C67.5799 12.1256 67.4615 11.7642 67.2248 11.5148C66.9882 11.2589 66.6651 11.131 66.2558 11.131C65.8464 11.131 65.5202 11.2589 65.2771 11.5148C65.0404 11.7642 64.9221 12.1256 64.9221 12.599V15.5542H63.8283V10.2674H64.9221V10.8719C65.1012 10.6544 65.3283 10.4849 65.6033 10.3634C65.8848 10.2418 66.1822 10.1811 66.4956 10.1811ZM71.1531 8.45399V15.5542H70.0593V8.45399H71.1531ZM74.8824 15.6406C74.3834 15.6406 73.9325 15.5286 73.5295 15.3047C73.1265 15.0745 72.8099 14.7546 72.5796 14.3452C72.3493 13.9295 72.2342 13.4497 72.2342 12.906C72.2342 12.3687 72.3525 11.8922 72.5892 11.4764C72.8259 11.0606 73.1489 10.7408 73.5583 10.5169C73.9677 10.293 74.425 10.1811 74.9304 10.1811C75.4357 10.1811 75.893 10.293 76.3024 10.5169C76.7118 10.7408 77.0348 11.0606 77.2715 11.4764C77.5082 11.8922 77.6265 12.3687 77.6265 12.906C77.6265 13.4433 77.505 13.9199 77.2619 14.3357C77.0188 14.7514 76.6862 15.0745 76.264 15.3047C75.8483 15.5286 75.3877 15.6406 74.8824 15.6406ZM74.8824 14.6907C75.1638 14.6907 75.4261 14.6235 75.6692 14.4892C75.9186 14.3548 76.1201 14.1533 76.2736 13.8847C76.4272 13.616 76.5039 13.2898 76.5039 12.906C76.5039 12.5222 76.4304 12.1992 76.2832 11.9369C76.1361 11.6683 75.941 11.4668 75.6979 11.3325C75.4549 11.1981 75.1926 11.131 74.9112 11.131C74.6297 11.131 74.3675 11.1981 74.1244 11.3325C73.8877 11.4668 73.699 11.6683 73.5583 11.9369C73.4176 12.1992 73.3472 12.5222 73.3472 12.906C73.3472 13.4753 73.4911 13.9167 73.779 14.2301C74.0732 14.5371 74.441 14.6907 74.8824 14.6907ZM78.3432 12.8868C78.3432 12.3559 78.4519 11.8858 78.6694 11.4764C78.8933 11.067 79.194 10.7504 79.5714 10.5265C79.9551 10.2962 80.3773 10.1811 80.8379 10.1811C81.2537 10.1811 81.6151 10.2642 81.9221 10.4305C82.2355 10.5905 82.485 10.7919 82.6705 11.035V10.2674H83.7739V15.5542H82.6705V14.7674C82.485 15.0169 82.2323 15.2248 81.9125 15.3911C81.5927 15.5574 81.2281 15.6406 80.8187 15.6406C80.3645 15.6406 79.9488 15.5254 79.5714 15.2951C79.194 15.0585 78.8933 14.7322 78.6694 14.3165C78.4519 13.8943 78.3432 13.4177 78.3432 12.8868ZM82.6705 12.906C82.6705 12.5414 82.5937 12.2248 82.4402 11.9561C82.2931 11.6875 82.098 11.4828 81.8549 11.342C81.6119 11.2013 81.3496 11.131 81.0682 11.131C80.7867 11.131 80.5244 11.2013 80.2814 11.342C80.0383 11.4764 79.84 11.6779 79.6865 11.9465C79.5394 12.2088 79.4658 12.5222 79.4658 12.8868C79.4658 13.2514 79.5394 13.5713 79.6865 13.8463C79.84 14.1214 80.0383 14.3325 80.2814 14.4796C80.5308 14.6203 80.7931 14.6907 81.0682 14.6907C81.3496 14.6907 81.6119 14.6203 81.8549 14.4796C82.098 14.3388 82.2931 14.1342 82.4402 13.8655C82.5937 13.5904 82.6705 13.2706 82.6705 12.906ZM84.846 12.8868C84.846 12.3559 84.9547 11.8858 85.1722 11.4764C85.3961 11.067 85.6967 10.7504 86.0741 10.5265C86.4579 10.2962 86.8833 10.1811 87.3502 10.1811C87.6957 10.1811 88.0347 10.2578 88.3673 10.4113C88.7063 10.5585 88.975 10.7568 89.1733 11.0062V8.45399H90.2767V15.5542H89.1733V14.7578C88.9942 15.0137 88.7447 15.2248 88.4249 15.3911C88.1114 15.5574 87.75 15.6406 87.3407 15.6406C86.8801 15.6406 86.4579 15.5254 86.0741 15.2951C85.6967 15.0585 85.3961 14.7322 85.1722 14.3165C84.9547 13.8943 84.846 13.4177 84.846 12.8868ZM89.1733 12.906C89.1733 12.5414 89.0965 12.2248 88.943 11.9561C88.7959 11.6875 88.6008 11.4828 88.3577 11.342C88.1146 11.2013 87.8524 11.131 87.5709 11.131C87.2895 11.131 87.0272 11.2013 86.7841 11.342C86.5411 11.4764 86.3428 11.6779 86.1893 11.9465C86.0421 12.2088 85.9686 12.5222 85.9686 12.8868C85.9686 13.2514 86.0421 13.5713 86.1893 13.8463C86.3428 14.1214 86.5411 14.3325 86.7841 14.4796C87.0336 14.6203 87.2959 14.6907 87.5709 14.6907C87.8524 14.6907 88.1146 14.6203 88.3577 14.4796C88.6008 14.3388 88.7959 14.1342 88.943 13.8655C89.0965 13.5904 89.1733 13.2706 89.1733 12.906ZM97.2474 15.6214C96.6269 15.6214 96.0544 15.4774 95.5299 15.1896C95.0118 14.8954 94.5992 14.4892 94.2921 13.971C93.9915 13.4465 93.8412 12.858 93.8412 12.2056C93.8412 11.5531 93.9915 10.9678 94.2921 10.4497C94.5992 9.9316 95.0118 9.52862 95.5299 9.24077C96.0544 8.94653 96.6269 8.79941 97.2474 8.79941C97.8742 8.79941 98.4467 8.94653 98.9648 9.24077C99.4894 9.52862 99.9019 9.9316 100.203 10.4497C100.503 10.9678 100.654 11.5531 100.654 12.2056C100.654 12.858 100.503 13.4465 100.203 13.971C99.9019 14.4892 99.4894 14.8954 98.9648 15.1896C98.4467 15.4774 97.8742 15.6214 97.2474 15.6214ZM97.2474 14.6715C97.6887 14.6715 98.0821 14.5723 98.4275 14.374C98.7729 14.1693 99.0416 13.8815 99.2335 13.5105C99.4318 13.1331 99.5309 12.6981 99.5309 12.2056C99.5309 11.7131 99.4318 11.2813 99.2335 10.9103C99.0416 10.5393 98.7729 10.2546 98.4275 10.0563C98.0821 9.85804 97.6887 9.75889 97.2474 9.75889C96.806 9.75889 96.4126 9.85804 96.0672 10.0563C95.7218 10.2546 95.4499 10.5393 95.2516 10.9103C95.0597 11.2813 94.9638 11.7131 94.9638 12.2056C94.9638 12.6981 95.0597 13.1331 95.2516 13.5105C95.4499 13.8815 95.7218 14.1693 96.0672 14.374C96.4126 14.5723 96.806 14.6715 97.2474 14.6715ZM104.397 10.1811C104.813 10.1811 105.184 10.2674 105.51 10.4401C105.843 10.6128 106.102 10.8687 106.287 11.2077C106.473 11.5467 106.566 11.9561 106.566 12.4359V15.5542H105.481V12.599C105.481 12.1256 105.363 11.7642 105.126 11.5148C104.89 11.2589 104.567 11.131 104.157 11.131C103.748 11.131 103.422 11.2589 103.179 11.5148C102.942 11.7642 102.824 12.1256 102.824 12.599V15.5542H101.73V10.2674H102.824V10.8719C103.003 10.6544 103.23 10.4849 103.505 10.3634C103.786 10.2418 104.084 10.1811 104.397 10.1811Z" fill="white"/>
<path d="M48.5896 29.5307H44.8668L44.2271 31.3473H42.7047L45.8902 22.4432H47.5789L50.7644 31.3473H49.2293L48.5896 29.5307ZM48.1802 28.3409L46.7346 24.2087L45.2762 28.3409H48.1802ZM53.6079 25.3345C53.8553 25.0104 54.1921 24.7375 54.6186 24.5157C55.045 24.294 55.5269 24.1831 56.0642 24.1831C56.6783 24.1831 57.2369 24.3366 57.7401 24.6437C58.2518 24.9422 58.6527 25.3644 58.9427 25.9102C59.2326 26.456 59.3776 27.0829 59.3776 27.7908C59.3776 28.4987 59.2326 29.1341 58.9427 29.697C58.6527 30.2513 58.2518 30.6863 57.7401 31.0019C57.2369 31.3089 56.6783 31.4624 56.0642 31.4624C55.5269 31.4624 55.0493 31.3558 54.6314 31.1426C54.2135 30.9209 53.8723 30.6479 53.6079 30.3238V34.6991H52.1495V24.2983H53.6079V25.3345ZM57.8936 27.7908C57.8936 27.3046 57.7913 26.8867 57.5866 26.5371C57.3904 26.1789 57.126 25.9102 56.7934 25.7311C56.4693 25.5435 56.1196 25.4496 55.7444 25.4496C55.3776 25.4496 55.028 25.5435 54.6953 25.7311C54.3712 25.9187 54.1069 26.1916 53.9022 26.5499C53.706 26.9081 53.6079 27.3302 53.6079 27.8164C53.6079 28.3025 53.706 28.729 53.9022 29.0957C54.1069 29.4539 54.3712 29.7268 54.6953 29.9145C55.028 30.1021 55.3776 30.1959 55.7444 30.1959C56.1196 30.1959 56.4693 30.1021 56.7934 29.9145C57.126 29.7183 57.3904 29.4368 57.5866 29.0701C57.7913 28.7034 57.8936 28.2769 57.8936 27.7908ZM62.2783 25.3345C62.5256 25.0104 62.8625 24.7375 63.2889 24.5157C63.7154 24.294 64.1973 24.1831 64.7346 24.1831C65.3486 24.1831 65.9073 24.3366 66.4105 24.6437C66.9222 24.9422 67.3231 25.3644 67.613 25.9102C67.903 26.456 68.048 27.0829 68.048 27.7908C68.048 28.4987 67.903 29.1341 67.613 29.697C67.3231 30.2513 66.9222 30.6863 66.4105 31.0019C65.9073 31.3089 65.3486 31.4624 64.7346 31.4624C64.1973 31.4624 63.7197 31.3558 63.3017 31.1426C62.8838 30.9209 62.5427 30.6479 62.2783 30.3238V34.6991H60.8199V24.2983H62.2783V25.3345ZM66.564 27.7908C66.564 27.3046 66.4617 26.8867 66.257 26.5371C66.0608 26.1789 65.7964 25.9102 65.4638 25.7311C65.1397 25.5435 64.79 25.4496 64.4147 25.4496C64.048 25.4496 63.6983 25.5435 63.3657 25.7311C63.0416 25.9187 62.7772 26.1916 62.5725 26.5499C62.3764 26.9081 62.2783 27.3302 62.2783 27.8164C62.2783 28.3025 62.3764 28.729 62.5725 29.0957C62.7772 29.4539 63.0416 29.7268 63.3657 29.9145C63.6983 30.1021 64.048 30.1959 64.4147 30.1959C64.79 30.1959 65.1397 30.1021 65.4638 29.9145C65.7964 29.7183 66.0608 29.4368 66.257 29.0701C66.4617 28.7034 66.564 28.2769 66.564 27.7908ZM75.7431 31.4368C75.1461 31.4368 74.6088 31.3345 74.1312 31.1298C73.6535 30.9166 73.2783 30.6181 73.0054 30.2343C72.7324 29.8505 72.596 29.4027 72.596 28.891H74.1567C74.1909 29.2748 74.3401 29.5904 74.6045 29.8377C74.8774 30.085 75.257 30.2087 75.7431 30.2087C76.2463 30.2087 76.6386 30.0893 76.9201 29.8505C77.2015 29.6032 77.3422 29.2876 77.3422 28.9038C77.3422 28.6053 77.2527 28.3622 77.0736 28.1746C76.903 27.987 76.6855 27.842 76.4211 27.7396C76.1653 27.6373 75.8071 27.5264 75.3465 27.407C74.7666 27.2535 74.2932 27.1 73.9265 26.9464C73.5683 26.7844 73.2612 26.5371 73.0054 26.2044C72.7495 25.8718 72.6216 25.4283 72.6216 24.8739C72.6216 24.3622 72.7495 23.9145 73.0054 23.5307C73.2612 23.1469 73.6194 22.8526 74.08 22.6479C74.5405 22.4432 75.0736 22.3409 75.6791 22.3409C76.5405 22.3409 77.2442 22.5584 77.79 22.9934C78.3444 23.4198 78.6514 24.0083 78.7111 24.7588H77.0992C77.0736 24.4347 76.9201 24.1575 76.6386 23.9273C76.3572 23.697 75.9862 23.5818 75.5256 23.5818C75.1077 23.5818 74.7666 23.6884 74.5022 23.9017C74.2378 24.1149 74.1056 24.4219 74.1056 24.8228C74.1056 25.0957 74.1866 25.3217 74.3486 25.5008C74.5192 25.6714 74.7324 25.8078 74.9883 25.9102C75.2442 26.0125 75.5938 26.1234 76.0373 26.2428C76.6258 26.4049 77.1034 26.5669 77.4702 26.729C77.8454 26.891 78.161 27.1426 78.4169 27.4838C78.6813 27.8164 78.8135 28.2641 78.8135 28.827C78.8135 29.2791 78.6898 29.7055 78.4425 30.1064C78.2036 30.5072 77.8497 30.8313 77.3806 31.0786C76.9201 31.3174 76.3742 31.4368 75.7431 31.4368ZM82.2358 25.488V29.3899C82.2358 29.6543 82.2955 29.8462 82.4149 29.9656C82.5429 30.0765 82.7561 30.1319 83.0546 30.1319H83.9501V31.3473H82.7987C82.142 31.3473 81.6388 31.1938 81.2891 30.8867C80.9395 30.5797 80.7646 30.0808 80.7646 29.3899V25.488H79.9331V24.2983H80.7646V22.5456H82.2358V24.2983H83.9501V25.488H82.2358ZM88.3519 31.4624C87.6866 31.4624 87.0853 31.3132 86.548 31.0147C86.0107 30.7076 85.5885 30.2812 85.2815 29.7354C84.9745 29.181 84.8209 28.5413 84.8209 27.8164C84.8209 27.1 84.9787 26.4646 85.2943 25.9102C85.6099 25.3558 86.0406 24.9294 86.5864 24.6309C87.1322 24.3324 87.7421 24.1831 88.4158 24.1831C89.0896 24.1831 89.6994 24.3324 90.2453 24.6309C90.7911 24.9294 91.2218 25.3558 91.5374 25.9102C91.8529 26.4646 92.0107 27.1 92.0107 27.8164C92.0107 28.5328 91.8487 29.1682 91.5246 29.7226C91.2005 30.2769 90.757 30.7076 90.1941 31.0147C89.6397 31.3132 89.0256 31.4624 88.3519 31.4624ZM88.3519 30.1959C88.7271 30.1959 89.0768 30.1064 89.4009 29.9272C89.7335 29.7481 90.0022 29.4795 90.2069 29.1213C90.4116 28.7631 90.5139 28.3281 90.5139 27.8164C90.5139 27.3046 90.4158 26.8739 90.2197 26.5243C90.0235 26.1661 89.7634 25.8974 89.4393 25.7183C89.1152 25.5392 88.7655 25.4496 88.3902 25.4496C88.015 25.4496 87.6653 25.5392 87.3412 25.7183C87.0256 25.8974 86.774 26.1661 86.5864 26.5243C86.3988 26.8739 86.305 27.3046 86.305 27.8164C86.305 28.5754 86.4969 29.1639 86.8806 29.5818C87.273 29.9912 87.7634 30.1959 88.3519 30.1959ZM94.9109 25.3217C95.1241 24.9635 95.4055 24.6863 95.7552 24.4902C96.1134 24.2855 96.5356 24.1831 97.0217 24.1831V25.6927H96.6507C96.0793 25.6927 95.6443 25.8377 95.3458 26.1277C95.0558 26.4177 94.9109 26.9209 94.9109 27.6373V31.3473H93.4524V24.2983H94.9109V25.3217ZM104.823 27.6501C104.823 27.9145 104.806 28.1533 104.772 28.3665H99.3858C99.4284 28.9294 99.6374 29.3814 100.013 29.7226C100.388 30.0637 100.848 30.2343 101.394 30.2343C102.179 30.2343 102.733 29.9059 103.057 29.2492H104.631C104.418 29.8974 104.03 30.4304 103.467 30.8484C102.912 31.2577 102.222 31.4624 101.394 31.4624C100.721 31.4624 100.115 31.3132 99.5777 31.0147C99.0489 30.7076 98.631 30.2812 98.3239 29.7354C98.0254 29.181 97.8762 28.5413 97.8762 27.8164C97.8762 27.0914 98.0212 26.456 98.3111 25.9102C98.6097 25.3558 99.0233 24.9294 99.5521 24.6309C100.089 24.3324 100.703 24.1831 101.394 24.1831C102.06 24.1831 102.652 24.3281 103.173 24.6181C103.693 24.9081 104.098 25.3174 104.388 25.8462C104.678 26.3665 104.823 26.9678 104.823 27.6501ZM103.3 27.1895C103.292 26.6522 103.1 26.2215 102.725 25.8974C102.35 25.5733 101.885 25.4113 101.33 25.4113C100.827 25.4113 100.396 25.5733 100.038 25.8974C99.68 26.213 99.4668 26.6437 99.3986 27.1895H103.3Z" fill="white"/>
<defs>
<clipPath id="clip0_1757_2301">
<rect width="19.1898" height="19.1898" fill="white" transform="translate(13.4849 9.7522)"/>
</clipPath>
</defs>
</svg>
