<svg width="155" height="57" viewBox="0 0 155 57" fill="none" xmlns="http://www.w3.org/2000/svg">
<g clip-path="url(#clip0_1808_866)">
<g clip-path="url(#clip1_1808_866)">
<g clip-path="url(#clip2_1808_866)">
<path d="M148.58 0.731934H6.98032C3.4457 0.731934 0.580322 3.59731 0.580322 7.13193V50.3319C0.580322 53.8666 3.4457 56.7319 6.98032 56.7319H148.58C152.115 56.7319 154.98 53.8666 154.98 50.3319V7.13193C154.98 3.59731 152.115 0.731934 148.58 0.731934Z" fill="black"/>
<path d="M33.3746 28.197C33.4025 26.0502 34.5397 24.0674 36.3876 22.943C35.2165 21.2877 33.3254 20.2758 31.2846 20.2126C29.1376 19.9896 27.0562 21.4842 25.9621 21.4842C24.8469 21.4842 23.1624 20.2348 21.3484 20.2718C18.9618 20.3481 16.7907 21.6585 15.6295 23.7236C13.1568 27.9606 15.0013 34.1876 17.3699 37.6126C18.555 39.2896 19.9401 41.163 21.7523 41.0965C23.5258 41.0237 24.1882 39.9773 26.3288 39.9773C28.4497 39.9773 29.071 41.0965 30.9202 41.0542C32.8231 41.0237 34.0221 39.3698 35.1656 37.6768C36.0171 36.4818 36.6723 35.1611 37.107 33.7636C34.8468 32.8174 33.3772 30.6257 33.3746 28.197Z" fill="white"/>
<path d="M29.8819 17.9604C30.9195 16.7277 31.4307 15.1431 31.3069 13.5435C29.7217 13.7082 28.2574 14.458 27.2058 15.6435C26.1674 16.8131 25.6413 18.3432 25.7435 19.8969C27.35 19.9133 28.8752 19.1995 29.8819 17.9604Z" fill="white"/>
<path d="M55.792 36.8509H49.7401L48.2867 41.0981H45.7234L51.4557 25.3845H54.1189L59.8512 41.0981H57.2442L55.792 36.8509ZM50.3669 34.891H55.164L52.7992 27.9981H52.7331L50.3669 34.891Z" fill="white"/>
<path d="M72.2311 35.3706C72.2311 38.9307 70.3058 41.2181 67.4003 41.2181C65.8985 41.2958 64.4839 40.5173 63.7582 39.2137H63.7032V44.8881H61.3271V29.6417H63.6271V31.5473H63.6708C64.4287 30.2518 65.8449 29.4737 67.3567 29.5219C70.2945 29.5219 72.2311 31.8204 72.2311 35.3706ZM69.7889 35.3706C69.7889 33.0512 68.5778 31.5262 66.7299 31.5262C64.9143 31.5262 63.6932 33.0833 63.6932 35.3706C63.6932 37.6789 64.9143 39.2249 66.7299 39.2249C68.5778 39.2249 69.7889 37.7111 69.7889 35.3706Z" fill="white"/>
<path d="M84.9716 35.3706C84.9716 38.9307 83.0468 41.2181 80.1411 41.2181C78.6392 41.2958 77.2246 40.5173 76.4989 39.2137H76.444V44.8881H74.0679V29.6417H76.3677V31.5473H76.4115C77.1694 30.2518 78.5856 29.4737 80.0973 29.5219C83.0356 29.5219 84.9716 31.8204 84.9716 35.3706ZM82.53 35.3706C82.53 33.0512 81.3188 31.5262 79.4705 31.5262C77.6551 31.5262 76.434 33.0833 76.434 35.3706C76.434 37.6789 77.6551 39.2249 79.4705 39.2249C81.3188 39.2249 82.53 37.7111 82.53 35.3706Z" fill="white"/>
<path d="M93.3922 36.7199C93.5682 38.2782 95.0978 39.3014 97.1882 39.3014C99.1906 39.3014 100.631 38.2782 100.631 36.8731C100.631 35.6534 99.7626 34.9232 97.705 34.4226L95.6474 33.9321C92.7314 33.2351 91.3786 31.8858 91.3786 29.696C91.3786 26.9848 93.7658 25.1226 97.1554 25.1226C100.511 25.1226 102.811 26.9848 102.887 29.696H100.489C100.346 28.1278 99.0354 27.1813 97.1218 27.1813C95.2074 27.1813 93.8978 28.139 93.8978 29.5329C93.8978 30.6438 94.7346 31.2975 96.781 31.7979L98.5298 32.223C101.787 32.9854 103.141 34.2806 103.141 36.579C103.141 39.5188 100.775 41.36 97.0122 41.36C93.4906 41.36 91.1138 39.562 90.9602 36.7198L93.3922 36.7199Z" fill="white"/>
<path d="M108.268 26.9304V29.6416H110.47V31.5039H108.268V37.8197C108.268 38.8008 108.709 39.2581 109.677 39.2581C109.939 39.2535 110.2 39.2354 110.459 39.2037V41.0548C110.024 41.1352 109.581 41.1717 109.139 41.1635C106.796 41.1635 105.881 40.2923 105.881 38.0705V31.5039H104.198V29.6416H105.881V26.9304H108.268Z" fill="white"/>
<path d="M111.745 35.3707C111.745 31.766 113.89 29.501 117.236 29.501C120.592 29.501 122.727 31.7659 122.727 35.3707C122.727 38.9851 120.603 41.2403 117.236 41.2403C113.869 41.2403 111.745 38.9851 111.745 35.3707ZM120.305 35.3707C120.305 32.8979 119.16 31.4386 117.236 31.4386C115.31 31.4386 114.166 32.9091 114.166 35.3707C114.166 37.8532 115.31 39.3015 117.236 39.3015C119.16 39.3015 120.305 37.8532 120.305 35.3707Z" fill="white"/>
<path d="M124.686 29.6416H126.952V31.5916H127.007C127.323 30.3363 128.485 29.4724 129.792 29.5218C130.065 29.5208 130.338 29.5503 130.605 29.6095V31.8091C130.26 31.7046 129.9 31.6566 129.538 31.667C128.84 31.639 128.164 31.9145 127.688 32.4212C127.212 32.9279 126.983 33.6153 127.062 34.3028V41.098H124.686V29.6416Z" fill="white"/>
<path d="M141.56 37.7332C141.241 39.8129 139.195 41.2402 136.576 41.2402C133.209 41.2402 131.119 39.0072 131.119 35.4248C131.119 31.8314 133.22 29.5007 136.476 29.5007C139.679 29.5007 141.693 31.6781 141.693 35.1518V35.9575H133.517V36.0995C133.441 36.9524 133.739 37.7967 134.334 38.4175C134.93 39.0384 135.767 39.3761 136.631 39.3446C137.784 39.4515 138.871 38.7962 139.304 37.7331L141.56 37.7332ZM133.528 34.3139H139.315C139.359 33.5475 139.077 32.7981 138.538 32.2461C137.999 31.6942 137.251 31.3898 136.476 31.4062C135.695 31.4016 134.943 31.7062 134.39 32.2522C133.836 32.7982 133.527 33.5404 133.528 34.3139Z" fill="white"/>
<path d="M50.0666 13.9877C51.0755 13.9152 52.0636 14.2994 52.759 15.0346C53.4545 15.7697 53.7839 16.7782 53.6567 17.7826C53.6567 20.2226 52.3393 21.6252 50.0666 21.6252H47.3108V13.9877H50.0666ZM48.4958 20.5451H49.9343C50.6553 20.5882 51.3573 20.3039 51.8453 19.771C52.3334 19.2382 52.5557 18.5135 52.4505 17.7982C52.5481 17.0859 52.3226 16.3673 51.8357 15.8387C51.3488 15.3102 50.6514 15.0271 49.9343 15.067H48.4958V20.5451Z" fill="white"/>
<path d="M54.9955 18.7405C54.8968 17.7075 55.3917 16.7077 56.2727 16.1605C57.1535 15.6132 58.2682 15.6132 59.1491 16.1605C60.03 16.7077 60.5249 17.7075 60.4262 18.7405C60.5268 19.7748 60.0324 20.7765 59.1507 21.3249C58.269 21.8733 57.1528 21.8733 56.2711 21.3249C55.3894 20.7765 54.895 19.7748 54.9955 18.7405ZM59.2574 18.7405C59.2574 17.4912 58.6967 16.7605 57.7127 16.7605C56.7251 16.7605 56.1694 17.4912 56.1694 18.7406C56.1694 20 56.7251 20.7249 57.7127 20.7249C58.6967 20.7249 59.2574 19.9949 59.2574 18.7405Z" fill="white"/>
<path fill-rule="evenodd" clip-rule="evenodd" d="M67.6452 21.6251H66.4664L65.2764 17.38H65.1865L64.0015 21.6251H62.8339L61.2468 15.8613H62.3994L63.4308 20.2594H63.5157L64.6995 15.8613H65.7896L66.9734 20.2594H67.0633L68.0897 15.8613H69.226L67.6452 21.6251Z" fill="white"/>
<path fill-rule="evenodd" clip-rule="evenodd" d="M70.5608 15.8614H71.6546V16.777H71.7396C72.0349 16.1029 72.7249 15.6905 73.4578 15.7501C74.0253 15.7074 74.5814 15.9254 74.9691 16.3424C75.3568 16.7594 75.534 17.3303 75.4507 17.8938V21.625H74.3144V18.1795C74.3144 17.2533 73.9123 16.7926 73.0719 16.7926C72.687 16.7746 72.3134 16.9259 72.0492 17.2066C71.7849 17.4874 71.6563 17.8697 71.6971 18.2532V21.6251H70.5608V15.8614Z" fill="white"/>
<path fill-rule="evenodd" clip-rule="evenodd" d="M77.2607 13.6113H78.3971V21.6251H77.2607V13.6113Z" fill="white"/>
<path d="M79.9767 18.7406C79.878 17.7075 80.373 16.7077 81.2538 16.1604C82.1346 15.6132 83.2498 15.6132 84.1306 16.1604C85.0114 16.7077 85.5066 17.7075 85.4082 18.7406C85.5082 19.775 85.0138 20.7766 84.1322 21.325C83.2506 21.8734 82.1338 21.8734 81.2522 21.325C80.3707 20.7766 79.8762 19.775 79.9767 18.7406ZM84.2386 18.7406C84.2386 17.4913 83.6778 16.7606 82.6938 16.7606C81.7058 16.7606 81.1506 17.4913 81.1506 18.7407C81.1506 20.0001 81.7058 20.725 82.6938 20.725C83.6778 20.725 84.2386 19.995 84.2386 18.7406Z" fill="white"/>
<path d="M86.6042 19.995C86.6042 18.9574 87.3762 18.3594 88.7458 18.2743L90.3058 18.1843V17.6869C90.3058 17.0781 89.9034 16.7343 89.1266 16.7343C88.4922 16.7343 88.053 16.9674 87.9266 17.375H86.8266C86.9426 16.385 87.873 15.75 89.1794 15.75C90.6226 15.75 91.437 16.4694 91.437 17.6869V21.625H90.3435V20.815H90.2531C89.8819 21.4065 89.221 21.7522 88.5234 21.7199C88.0346 21.7708 87.5474 21.6124 87.1818 21.2837C86.8162 20.955 86.6066 20.4869 86.6042 19.995ZM90.3058 19.5025V19.0206L88.8995 19.1106C88.1067 19.1637 87.7466 19.4337 87.7466 19.9418C87.7466 20.4606 88.1962 20.7625 88.8146 20.7625C89.181 20.7995 89.5458 20.6864 89.8266 20.4489C90.1082 20.2114 90.281 19.8698 90.3058 19.5025Z" fill="white"/>
<path d="M92.9307 18.7407C92.9307 16.9195 93.8659 15.7657 95.3203 15.7657C96.0547 15.7318 96.7427 16.1259 97.0859 16.7769H97.1707V13.6113H98.3075V21.6251H97.2187V20.7144H97.1283C96.7595 21.3601 96.0627 21.7475 95.3203 21.72C93.8555 21.7201 92.9307 20.5664 92.9307 18.7407ZM94.1043 18.7407C94.1043 19.9632 94.6795 20.6988 95.6427 20.6988C96.6003 20.6988 97.1923 19.9526 97.1923 18.7457C97.1923 17.5444 96.5939 16.7876 95.6427 16.7876C94.6859 16.7876 94.1043 17.5282 94.1043 18.7407Z" fill="white"/>
<path d="M103.009 18.7405C102.91 17.7075 103.405 16.7077 104.286 16.1605C105.167 15.6132 106.281 15.6132 107.163 16.1605C108.043 16.7077 108.538 17.7075 108.439 18.7405C108.54 19.7748 108.046 20.7765 107.164 21.3249C106.282 21.8733 105.166 21.8733 104.284 21.3249C103.403 20.7765 102.908 19.7748 103.009 18.7405ZM107.271 18.7405C107.271 17.4912 106.71 16.7605 105.726 16.7605C104.738 16.7605 104.183 17.4912 104.183 18.7406C104.183 20 104.739 20.7249 105.726 20.7249C106.71 20.7249 107.271 19.9949 107.271 18.7405Z" fill="white"/>
<path fill-rule="evenodd" clip-rule="evenodd" d="M109.964 15.8614H111.058V16.777H111.143C111.438 16.1029 112.128 15.6905 112.861 15.7501C113.428 15.7074 113.984 15.9254 114.372 16.3424C114.76 16.7594 114.937 17.3303 114.854 17.8938V21.625H113.718V18.1795C113.718 17.2533 113.316 16.7926 112.475 16.7926C112.09 16.7746 111.716 16.9259 111.452 17.2066C111.188 17.4874 111.06 17.8697 111.1 18.2532V21.6251H109.964V15.8614Z" fill="white"/>
<path fill-rule="evenodd" clip-rule="evenodd" d="M121.275 14.4263V15.8875H122.523V16.8456H121.275V19.8094C121.275 20.4132 121.524 20.6775 122.089 20.6775C122.234 20.677 122.379 20.6683 122.523 20.6512V21.5987C122.318 21.6353 122.112 21.6547 121.904 21.6568C120.64 21.6568 120.137 21.2119 120.137 20.1006V16.8455H119.224V15.8875H120.137V14.4263H121.275Z" fill="white"/>
<path fill-rule="evenodd" clip-rule="evenodd" d="M124.074 13.6113H125.2V16.7876H125.29C125.6 16.1076 126.302 15.6946 127.046 15.7551C127.61 15.7244 128.159 15.9471 128.542 16.3626C128.926 16.7781 129.104 17.3432 129.029 17.9038V21.6251H127.892V18.1844C127.892 17.2638 127.463 16.7976 126.66 16.7976C126.265 16.7651 125.876 16.909 125.596 17.1907C125.316 17.4724 125.176 17.8633 125.211 18.2588V21.6251H124.074V13.6113Z" fill="white"/>
<path d="M135.655 20.0688C135.336 21.156 134.285 21.8585 133.16 21.7363C132.392 21.7566 131.655 21.438 131.142 20.8651C130.63 20.2923 130.396 19.5229 130.5 18.7613C130.398 17.9976 130.632 17.2271 131.141 16.6493C131.651 16.0715 132.385 15.7435 133.155 15.7501C134.757 15.7501 135.724 16.8458 135.724 18.6557V19.0526H131.658V19.1163C131.622 19.544 131.768 19.9671 132.06 20.2815C132.352 20.5958 132.763 20.7723 133.192 20.7675C133.747 20.8343 134.288 20.5583 134.561 20.0687L135.655 20.0688ZM131.658 18.2113H134.566C134.595 17.8202 134.458 17.4349 134.188 17.1506C133.918 16.8663 133.54 16.7092 133.148 16.7182C132.752 16.7132 132.369 16.8689 132.088 17.15C131.808 17.4311 131.652 17.8139 131.658 18.2113Z" fill="white"/>
</g>
</g>
</g>
<defs>
<clipPath id="clip0_1808_866">
<rect width="154.39" height="56" fill="white" transform="translate(0.585205 0.731934)"/>
</clipPath>
<clipPath id="clip1_1808_866">
<rect width="154.39" height="56" fill="white" transform="translate(0.585205 0.731934)"/>
</clipPath>
<clipPath id="clip2_1808_866">
<rect width="154.4" height="56" fill="white" transform="translate(0.580322 0.731934)"/>
</clipPath>
</defs>
</svg>
