<svg width="150" height="39" viewBox="0 0 150 39" fill="none" xmlns="http://www.w3.org/2000/svg">
<rect x="1.40187" y="0.957044" width="147.121" height="36.7804" rx="18.3902" stroke="white" stroke-width="1.59915"/>
<g clip-path="url(#clip0_1757_2307)">
<path d="M22.3572 18.9005L13.4753 27.3186C13.5751 27.6383 13.7543 27.9332 13.9994 28.1807C14.2444 28.4282 14.5487 28.6218 14.8891 28.7465C15.2295 28.8713 15.5969 28.924 15.9633 28.9007C16.3297 28.8773 16.6853 28.7785 17.003 28.6117L26.9967 23.4628L22.3572 18.9005Z" fill="#E6E2E2"/>
<path d="M31.3378 17.4698L27.0161 15.2305L22.1516 19.0922L27.0359 23.4509L31.3247 21.2356C31.7046 21.0556 32.0228 20.785 32.2449 20.4531C32.4669 20.1212 32.5843 19.7406 32.5843 19.3526C32.5843 18.9647 32.4669 18.5841 32.2449 18.2522C32.0228 17.9203 31.7046 17.6497 31.3247 17.4697L31.3378 17.4698Z" fill="#F1F2F3"/>
<path d="M13.475 11.3448C13.4213 11.5244 13.3946 11.7097 13.3955 11.8957V26.7678C13.3961 26.9538 13.4228 27.1389 13.475 27.3187L22.6613 19.1162L13.475 11.3448Z" fill="#F1F2F3"/>
<path d="M22.3435 19.3318L26.9367 15.2305L16.9562 10.0575C16.5807 9.85861 16.1537 9.75325 15.7185 9.7522C14.6386 9.7503 13.6892 10.3987 13.3955 11.3388L22.3435 19.3318Z" fill="#E6E2E2"/>
</g>
<path d="M47.726 10.8046C47.5533 10.472 47.3134 10.2225 47.0064 10.0562C46.6994 9.88351 46.3444 9.79715 45.9414 9.79715C45.5 9.79715 45.1066 9.8963 44.7612 10.0946C44.4158 10.2929 44.1439 10.5743 43.9456 10.9389C43.7537 11.3035 43.6578 11.7257 43.6578 12.2055C43.6578 12.6852 43.7537 13.1106 43.9456 13.4816C44.1439 13.8462 44.4158 14.1276 44.7612 14.3259C45.1066 14.5242 45.5 14.6234 45.9414 14.6234C46.5362 14.6234 47.0192 14.4571 47.3902 14.1244C47.7612 13.7918 47.9883 13.3409 48.0714 12.7716H45.5672V11.8984H49.242V12.7524C49.1716 13.2705 48.9861 13.747 48.6855 14.182C48.3913 14.617 48.0043 14.9656 47.5245 15.2279C47.0512 15.4837 46.5235 15.6116 45.9414 15.6116C45.3145 15.6116 44.742 15.4677 44.2239 15.1799C43.7058 14.8856 43.2932 14.4795 42.9861 13.9613C42.6855 13.4432 42.5352 12.8579 42.5352 12.2055C42.5352 11.553 42.6855 10.9677 42.9861 10.4496C43.2932 9.93148 43.7058 9.5285 44.2239 9.24065C44.7484 8.94641 45.3209 8.79928 45.9414 8.79928C46.6514 8.79928 47.2815 8.97519 47.8316 9.327C48.3881 9.67242 48.791 10.165 49.0405 10.8046H47.726ZM55.1662 12.7812C55.1662 12.9795 55.1534 13.1586 55.1279 13.3185H51.0884C51.1204 13.7406 51.2771 14.0797 51.5586 14.3355C51.84 14.5914 52.1854 14.7193 52.5948 14.7193C53.1833 14.7193 53.5991 14.4731 53.8421 13.9805H55.0223C54.8624 14.4667 54.5714 14.8664 54.1492 15.1799C53.7334 15.4869 53.2153 15.6404 52.5948 15.6404C52.0895 15.6404 51.6353 15.5285 51.2323 15.3046C50.8358 15.0743 50.5223 14.7545 50.292 14.3451C50.0682 13.9293 49.9562 13.4496 49.9562 12.9059C49.9562 12.3622 50.065 11.8856 50.2824 11.4763C50.5063 11.0605 50.8166 10.7406 51.2132 10.5168C51.6161 10.2929 52.0767 10.1809 52.5948 10.1809C53.0937 10.1809 53.5383 10.2897 53.9285 10.5072C54.3187 10.7247 54.6225 11.0317 54.84 11.4283C55.0575 11.8185 55.1662 12.2694 55.1662 12.7812ZM54.0244 12.4357C54.0181 12.0328 53.8741 11.7097 53.5927 11.4667C53.3112 11.2236 52.9626 11.1021 52.5468 11.1021C52.1694 11.1021 51.8464 11.2236 51.5778 11.4667C51.3091 11.7033 51.1492 12.0264 51.098 12.4357H54.0244ZM57.5188 11.1596V14.0861C57.5188 14.2844 57.5636 14.4283 57.6531 14.5178C57.7491 14.601 57.909 14.6426 58.1329 14.6426H58.8045V15.5541H57.941C57.4484 15.5541 57.071 15.4389 56.8088 15.2087C56.5465 14.9784 56.4154 14.6042 56.4154 14.0861V11.1596H55.7917V10.2673H56.4154V8.9528H57.5188V10.2673H58.8045V11.1596H57.5188ZM63.3989 8.88564V15.5541H62.3051V8.88564H63.3989ZM66.1111 11.1596V14.0861C66.1111 14.2844 66.1558 14.4283 66.2454 14.5178C66.3413 14.601 66.5013 14.6426 66.7251 14.6426H67.3968V15.5541H66.5332C66.0407 15.5541 65.6633 15.4389 65.401 15.2087C65.1388 14.9784 65.0077 14.6042 65.0077 14.0861V11.1596H64.384V10.2673H65.0077V8.9528H66.1111V10.2673H67.3968V11.1596H66.1111ZM73.9389 15.6212C73.3184 15.6212 72.746 15.4773 72.2214 15.1895C71.7033 14.8952 71.2907 14.489 70.9837 13.9709C70.6831 13.4464 70.5327 12.8579 70.5327 12.2055C70.5327 11.553 70.6831 10.9677 70.9837 10.4496C71.2907 9.93148 71.7033 9.5285 72.2214 9.24065C72.746 8.94641 73.3184 8.79928 73.9389 8.79928C74.5658 8.79928 75.1383 8.94641 75.6564 9.24065C76.1809 9.5285 76.5935 9.93148 76.8941 10.4496C77.1948 10.9677 77.3451 11.553 77.3451 12.2055C77.3451 12.8579 77.1948 13.4464 76.8941 13.9709C76.5935 14.489 76.1809 14.8952 75.6564 15.1895C75.1383 15.4773 74.5658 15.6212 73.9389 15.6212ZM73.9389 14.6713C74.3803 14.6713 74.7737 14.5722 75.1191 14.3739C75.4645 14.1692 75.7332 13.8814 75.9251 13.5104C76.1233 13.133 76.2225 12.698 76.2225 12.2055C76.2225 11.7129 76.1233 11.2812 75.9251 10.9102C75.7332 10.5392 75.4645 10.2545 75.1191 10.0562C74.7737 9.85792 74.3803 9.75877 73.9389 9.75877C73.4975 9.75877 73.1042 9.85792 72.7587 10.0562C72.4133 10.2545 72.1415 10.5392 71.9432 10.9102C71.7513 11.2812 71.6553 11.7129 71.6553 12.2055C71.6553 12.698 71.7513 13.133 71.9432 13.5104C72.1415 13.8814 72.4133 14.1692 72.7587 14.3739C73.1042 14.5722 73.4975 14.6713 73.9389 14.6713ZM81.0888 10.1809C81.5046 10.1809 81.8756 10.2673 82.2018 10.44C82.5344 10.6127 82.7935 10.8686 82.979 11.2076C83.1645 11.5466 83.2573 11.956 83.2573 12.4357V15.5541H82.173V12.5989C82.173 12.1255 82.0547 11.7641 81.818 11.5146C81.5814 11.2588 81.2583 11.1308 80.8489 11.1308C80.4396 11.1308 80.1133 11.2588 79.8703 11.5146C79.6336 11.7641 79.5153 12.1255 79.5153 12.5989V15.5541H78.4214V10.2673H79.5153V10.8718C79.6944 10.6543 79.9214 10.4848 80.1965 10.3632C80.4779 10.2417 80.7754 10.1809 81.0888 10.1809Z" fill="white"/>
<path d="M49.5746 25.0145C49.3443 24.5711 49.0245 24.2384 48.6151 24.0167C48.2058 23.7864 47.7324 23.6713 47.1951 23.6713C46.6066 23.6713 46.0821 23.8035 45.6215 24.0679C45.161 24.3322 44.7985 24.7075 44.5341 25.1937C44.2783 25.6798 44.1503 26.2427 44.1503 26.8824C44.1503 27.522 44.2783 28.0892 44.5341 28.5838C44.7985 29.07 45.161 29.4453 45.6215 29.7096C46.0821 29.974 46.6066 30.1062 47.1951 30.1062C47.9883 30.1062 48.6322 29.8845 49.1269 29.441C49.6215 28.9975 49.9243 28.3962 50.0352 27.6371H46.6962V26.473H51.5959V27.6116C51.5021 28.3024 51.2548 28.9378 50.8539 29.5177C50.4616 30.0977 49.9456 30.5625 49.306 30.9122C48.6748 31.2534 47.9712 31.4239 47.1951 31.4239C46.3593 31.4239 45.596 31.232 44.9051 30.8482C44.2143 30.4559 43.6642 29.9143 43.2548 29.2235C42.8539 28.5327 42.6535 27.7523 42.6535 26.8824C42.6535 26.0124 42.8539 25.232 43.2548 24.5412C43.6642 23.8504 44.2143 23.3131 44.9051 22.9293C45.6045 22.5369 46.3678 22.3408 47.1951 22.3408C48.1418 22.3408 48.9819 22.5753 49.7154 23.0444C50.4574 23.505 50.9947 24.1617 51.3273 25.0145H49.5746ZM56.0919 31.4623C55.4267 31.4623 54.8254 31.3131 54.2881 31.0145C53.7508 30.7075 53.3286 30.2811 53.0216 29.7352C52.7145 29.1809 52.561 28.5412 52.561 27.8163C52.561 27.0998 52.7188 26.4644 53.0344 25.9101C53.3499 25.3557 53.7806 24.9293 54.3265 24.6308C54.8723 24.3322 55.4821 24.183 56.1559 24.183C56.8297 24.183 57.4395 24.3322 57.9853 24.6308C58.5312 24.9293 58.9619 25.3557 59.2774 25.9101C59.593 26.4644 59.7508 27.0998 59.7508 27.8163C59.7508 28.5327 59.5887 29.1681 59.2647 29.7224C58.9406 30.2768 58.4971 30.7075 57.9342 31.0145C57.3798 31.3131 56.7657 31.4623 56.0919 31.4623ZM56.0919 30.1958C56.4672 30.1958 56.8169 30.1062 57.141 29.9271C57.4736 29.748 57.7423 29.4794 57.947 29.1212C58.1516 28.7629 58.254 28.328 58.254 27.8163C58.254 27.3045 58.1559 26.8738 57.9597 26.5241C57.7636 26.1659 57.5035 25.8973 57.1794 25.7182C56.8553 25.5391 56.5056 25.4495 56.1303 25.4495C55.7551 25.4495 55.4054 25.5391 55.0813 25.7182C54.7657 25.8973 54.5141 26.1659 54.3265 26.5241C54.1389 26.8738 54.045 27.3045 54.045 27.8163C54.045 28.5753 54.2369 29.1638 54.6207 29.5817C55.0131 29.9911 55.5035 30.1958 56.0919 30.1958ZM64.2501 31.4623C63.5848 31.4623 62.9836 31.3131 62.4463 31.0145C61.9089 30.7075 61.4868 30.2811 61.1797 29.7352C60.8727 29.1809 60.7192 28.5412 60.7192 27.8163C60.7192 27.0998 60.877 26.4644 61.1925 25.9101C61.5081 25.3557 61.9388 24.9293 62.4846 24.6308C63.0305 24.3322 63.6403 24.183 64.3141 24.183C64.9878 24.183 65.5976 24.3322 66.1435 24.6308C66.6893 24.9293 67.12 25.3557 67.4356 25.9101C67.7512 26.4644 67.9089 27.0998 67.9089 27.8163C67.9089 28.5327 67.7469 29.1681 67.4228 29.7224C67.0987 30.2768 66.6552 30.7075 66.0923 31.0145C65.5379 31.3131 64.9239 31.4623 64.2501 31.4623ZM64.2501 30.1958C64.6254 30.1958 64.975 30.1062 65.2991 29.9271C65.6318 29.748 65.9004 29.4794 66.1051 29.1212C66.3098 28.7629 66.4121 28.328 66.4121 27.8163C66.4121 27.3045 66.3141 26.8738 66.1179 26.5241C65.9217 26.1659 65.6616 25.8973 65.3375 25.7182C65.0134 25.5391 64.6637 25.4495 64.2885 25.4495C63.9132 25.4495 63.5635 25.5391 63.2394 25.7182C62.9239 25.8973 62.6723 26.1659 62.4846 26.5241C62.297 26.8738 62.2032 27.3045 62.2032 27.8163C62.2032 28.5753 62.3951 29.1638 62.7789 29.5817C63.1712 29.9911 63.6616 30.1958 64.2501 30.1958ZM72.1907 24.183C72.7366 24.183 73.2185 24.2939 73.6364 24.5156C74.0628 24.7288 74.3954 24.9975 74.6342 25.3216V24.2981H76.1055V31.4623C76.1055 32.1105 75.969 32.6862 75.6961 33.1894C75.4232 33.7011 75.0266 34.102 74.5063 34.3919C73.9946 34.6819 73.3805 34.8269 72.6641 34.8269C71.7089 34.8269 70.9157 34.6009 70.2846 34.1489C69.6534 33.7054 69.2952 33.0998 69.2099 32.3322H70.6556C70.7664 32.699 71.001 32.9932 71.3592 33.215C71.7259 33.4452 72.1609 33.5604 72.6641 33.5604C73.2526 33.5604 73.7259 33.3813 74.0841 33.0231C74.4509 32.6649 74.6342 32.1446 74.6342 31.4623V30.2853C74.3869 30.618 74.05 30.8994 73.6236 31.1297C73.2057 31.3514 72.7281 31.4623 72.1907 31.4623C71.5767 31.4623 71.0138 31.3088 70.5021 31.0018C69.9989 30.6862 69.598 30.2512 69.2995 29.6968C69.0095 29.1339 68.8645 28.4986 68.8645 27.7907C68.8645 27.0828 69.0095 26.4559 69.2995 25.9101C69.598 25.3642 69.9989 24.9421 70.5021 24.6435C71.0138 24.3365 71.5767 24.183 72.1907 24.183ZM74.6342 27.8163C74.6342 27.3301 74.5319 26.9079 74.3272 26.5497C74.131 26.1915 73.8709 25.9186 73.5468 25.731C73.2227 25.5433 72.8731 25.4495 72.4978 25.4495C72.1225 25.4495 71.7728 25.5433 71.4487 25.731C71.1247 25.9101 70.8603 26.1787 70.6556 26.5369C70.4594 26.8866 70.3613 27.3045 70.3613 27.7907C70.3613 28.2768 70.4594 28.7032 70.6556 29.07C70.8603 29.4367 71.1247 29.7182 71.4487 29.9143C71.7814 30.102 72.131 30.1958 72.4978 30.1958C72.8731 30.1958 73.2227 30.102 73.5468 29.9143C73.8709 29.7267 74.131 29.4538 74.3272 29.0956C74.5319 28.7288 74.6342 28.3024 74.6342 27.8163ZM79.4795 21.8802V31.3472H78.021V21.8802H79.4795ZM87.8548 27.6499C87.8548 27.9143 87.8377 28.1531 87.8036 28.3664H82.4177C82.4603 28.9293 82.6693 29.3813 83.0446 29.7224C83.4198 30.0636 83.8804 30.2342 84.4262 30.2342C85.2109 30.2342 85.7652 29.9058 86.0893 29.2491H87.6629C87.4497 29.8973 87.0616 30.4303 86.4987 30.8482C85.9443 31.2576 85.2535 31.4623 84.4262 31.4623C83.7524 31.4623 83.1469 31.3131 82.6096 31.0145C82.0808 30.7075 81.6629 30.2811 81.3559 29.7352C81.0573 29.1809 80.9081 28.5412 80.9081 27.8163C80.9081 27.0913 81.0531 26.4559 81.3431 25.9101C81.6416 25.3557 82.0552 24.9293 82.584 24.6308C83.1213 24.3322 83.7354 24.183 84.4262 24.183C85.0915 24.183 85.6842 24.328 86.2045 24.618C86.7247 24.9079 87.1298 25.3173 87.4198 25.8461C87.7098 26.3664 87.8548 26.9676 87.8548 27.6499ZM86.3324 27.1894C86.3239 26.6521 86.132 26.2214 85.7567 25.8973C85.3814 25.5732 84.9166 25.4111 84.3622 25.4111C83.8591 25.4111 83.4283 25.5732 83.0701 25.8973C82.7119 26.2128 82.4987 26.6435 82.4305 27.1894H86.3324ZM94.0717 25.3344C94.319 25.0103 94.6559 24.7374 95.0823 24.5156C95.5088 24.2939 95.9906 24.183 96.5279 24.183C97.142 24.183 97.7007 24.3365 98.2039 24.6435C98.7156 24.9421 99.1164 25.3642 99.4064 25.9101C99.6964 26.4559 99.8414 27.0828 99.8414 27.7907C99.8414 28.4986 99.6964 29.1339 99.4064 29.6968C99.1164 30.2512 98.7156 30.6862 98.2039 31.0018C97.7007 31.3088 97.142 31.4623 96.5279 31.4623C95.9906 31.4623 95.513 31.3557 95.0951 31.1425C94.6772 30.9207 94.3361 30.6478 94.0717 30.3237V34.699H92.6132V24.2981H94.0717V25.3344ZM98.3574 27.7907C98.3574 27.3045 98.255 26.8866 98.0503 26.5369C97.8542 26.1787 97.5898 25.9101 97.2572 25.731C96.9331 25.5433 96.5834 25.4495 96.2081 25.4495C95.8414 25.4495 95.4917 25.5433 95.1591 25.731C94.835 25.9186 94.5706 26.1915 94.3659 26.5497C94.1697 26.9079 94.0717 27.3301 94.0717 27.8163C94.0717 28.3024 94.1697 28.7288 94.3659 29.0956C94.5706 29.4538 94.835 29.7267 95.1591 29.9143C95.4917 30.102 95.8414 30.1958 96.2081 30.1958C96.5834 30.1958 96.9331 30.102 97.2572 29.9143C97.5898 29.7182 97.8542 29.4367 98.0503 29.07C98.255 28.7032 98.3574 28.2768 98.3574 27.7907ZM102.742 21.8802V31.3472H101.284V21.8802H102.742ZM104.171 27.7907C104.171 27.0828 104.316 26.4559 104.606 25.9101C104.904 25.3642 105.305 24.9421 105.808 24.6435C106.32 24.3365 106.883 24.183 107.497 24.183C108.051 24.183 108.533 24.2939 108.943 24.5156C109.36 24.7288 109.693 24.9975 109.94 25.3216V24.2981H111.412V31.3472H109.94V30.2981C109.693 30.6308 109.356 30.9079 108.93 31.1297C108.503 31.3514 108.017 31.4623 107.471 31.4623C106.866 31.4623 106.311 31.3088 105.808 31.0018C105.305 30.6862 104.904 30.2512 104.606 29.6968C104.316 29.1339 104.171 28.4986 104.171 27.7907ZM109.94 27.8163C109.94 27.3301 109.838 26.9079 109.633 26.5497C109.437 26.1915 109.177 25.9186 108.853 25.731C108.529 25.5433 108.179 25.4495 107.804 25.4495C107.429 25.4495 107.079 25.5433 106.755 25.731C106.431 25.9101 106.166 26.1787 105.962 26.5369C105.766 26.8866 105.667 27.3045 105.667 27.7907C105.667 28.2768 105.766 28.7032 105.962 29.07C106.166 29.4367 106.431 29.7182 106.755 29.9143C107.088 30.102 107.437 30.1958 107.804 30.1958C108.179 30.1958 108.529 30.102 108.853 29.9143C109.177 29.7267 109.437 29.4538 109.633 29.0956C109.838 28.7288 109.94 28.3024 109.94 27.8163ZM119.673 24.2981L115.348 34.6606H113.839L115.272 31.232L112.496 24.2981H114.12L116.103 29.6713L118.163 24.2981H119.673Z" fill="white"/>
<defs>
<clipPath id="clip0_1757_2307">
<rect width="19.1898" height="19.1898" fill="white" transform="translate(13.3955 9.7522)"/>
</clipPath>
</defs>
</svg>
