<svg width="155" height="57" viewBox="0 0 155 57" fill="none" xmlns="http://www.w3.org/2000/svg">
<g clip-path="url(#clip0_1808_894)">
<g clip-path="url(#clip1_1808_894)">
<g clip-path="url(#clip2_1808_894)">
<mask id="mask0_1808_894" style="mask-type:luminance" maskUnits="userSpaceOnUse" x="0" y="0" width="155" height="57">
<path d="M154.42 0.731934H0.0197754V56.7319H154.42V0.731934Z" fill="white"/>
</mask>
<g mask="url(#mask0_1808_894)">
<path d="M145.62 0.731934H8.97978C4.0313 0.731934 0.0197754 4.74346 0.0197754 9.69193V47.7719C0.0197754 52.7204 4.0313 56.7319 8.97978 56.7319H145.62C150.569 56.7319 154.58 52.7204 154.58 47.7719V9.69193C154.58 4.74346 150.569 0.731934 145.62 0.731934Z" fill="black"/>
<path fill-rule="evenodd" clip-rule="evenodd" d="M52.0083 17.8045C52.0083 18.743 51.7305 19.4901 51.1739 20.0478C50.5411 20.7109 49.7179 21.0424 48.7054 21.0424C47.7355 21.0424 46.91 20.7064 46.2324 20.0333C45.5526 19.3613 45.2144 18.5269 45.2144 17.5323C45.2144 16.5366 45.5526 15.7033 46.2324 15.0302C46.91 14.3582 47.7355 14.0222 48.7054 14.0222C49.1859 14.0222 49.6473 14.1163 50.0841 14.3033C50.522 14.4915 50.8726 14.7413 51.1358 15.0537L50.5444 15.6451C50.0998 15.1142 49.4872 14.8477 48.7054 14.8477C47.9976 14.8477 47.386 15.0963 46.8697 15.5936C46.3534 16.092 46.0958 16.7371 46.0958 17.5323C46.0958 18.3264 46.3534 18.9726 46.8697 19.4699C47.386 19.9683 47.9976 20.2158 48.7054 20.2158C49.4558 20.2158 50.0808 19.9661 50.5825 19.4654C50.9073 19.1395 51.0955 18.687 51.1448 18.1046H48.7054V17.2971H51.9612C51.9926 17.4729 52.0083 17.6409 52.0083 17.8045Z" fill="white"/>
<path fill-rule="evenodd" clip-rule="evenodd" d="M57.1704 14.9978H54.1106V17.128H56.8691V17.9356H54.1106V20.0658H57.1704V20.8924H53.2471V14.1724H57.1704V14.9978Z" fill="white"/>
<path fill-rule="evenodd" clip-rule="evenodd" d="M60.8119 20.8921H59.9484V14.9976H58.0713V14.1721H62.6891V14.9976H60.8119V20.8921Z" fill="white"/>
<path fill-rule="evenodd" clip-rule="evenodd" d="M66.03 20.8921H66.8935V14.1721H66.03V20.8921Z" fill="white"/>
<path fill-rule="evenodd" clip-rule="evenodd" d="M70.7238 20.8921H69.8603V14.9976H67.9832V14.1721H72.6009V14.9976H70.7238V20.8921Z" fill="white"/>
<path fill-rule="evenodd" clip-rule="evenodd" d="M77.0527 19.4609C77.5499 19.9649 78.1581 20.2158 78.8783 20.2158C79.5973 20.2158 80.2063 19.9649 80.7039 19.4609C81.2015 18.9569 81.4511 18.3141 81.4511 17.5323C81.4511 16.7505 81.2015 16.1065 80.7039 15.6037C80.2063 15.0997 79.5973 14.8477 78.8783 14.8477C78.1581 14.8477 77.5499 15.0997 77.0527 15.6037C76.5565 16.1065 76.3067 16.7505 76.3067 17.5323C76.3067 18.3141 76.5565 18.9569 77.0527 19.4609ZM81.3423 20.0232C80.6815 20.703 79.8605 21.0424 78.8783 21.0424C77.896 21.0424 77.0751 20.703 76.4154 20.0232C75.7546 19.3445 75.4253 18.5145 75.4253 17.5323C75.4253 16.5501 75.7546 15.719 76.4154 15.0403C77.0751 14.3616 77.896 14.0222 78.8783 14.0222C79.8549 14.0222 80.6735 14.3627 81.3375 15.0448C82.0007 15.7269 82.3327 16.5557 82.3327 17.5323C82.3327 18.5145 82.0023 19.3445 81.3423 20.0232Z" fill="white"/>
<path fill-rule="evenodd" clip-rule="evenodd" d="M83.5437 20.8921V14.1721H84.5941L87.8605 19.3992H87.8981L87.8605 18.1044V14.1721H88.7253V20.8921H87.8237L84.4077 15.4108H84.3693L84.4077 16.7067V20.8921H83.5437Z" fill="white"/>
<path d="M121.658 40.0081H123.81V25.6022H121.658V40.0081ZM141.055 30.7913L138.586 37.0372H138.513L135.95 30.7913H133.631L137.473 39.5207L135.282 44.3767H137.528L143.449 30.7913H141.055ZM128.841 38.3717C128.137 38.3717 127.153 38.0191 127.153 37.1479C127.153 36.037 128.378 35.6095 129.437 35.6095C130.382 35.6095 130.829 35.8146 131.403 36.0911C131.236 37.4267 130.085 38.3717 128.841 38.3717ZM129.102 30.4755C127.543 30.4755 125.929 31.1624 125.26 32.6812L127.171 33.4787C127.58 32.6812 128.341 32.4219 129.139 32.4219C130.253 32.4219 131.385 33.0891 131.403 34.275V34.4236C131.013 34.2012 130.177 33.8682 129.157 33.8682C127.097 33.8682 124.999 34.9987 124.999 37.111C124.999 39.0389 126.689 40.2812 128.581 40.2812C130.029 40.2812 130.829 39.6324 131.329 38.8719H131.403V39.9839H133.483V34.4605C133.483 31.9034 131.569 30.4755 129.102 30.4755ZM115.793 32.5452H112.73V27.6073H115.793C117.403 27.6073 118.317 28.9371 118.317 30.0757C118.317 31.1923 117.403 32.5452 115.793 32.5452ZM115.738 25.601H110.578V40.0081H112.73V34.5504H115.738C118.125 34.5504 120.471 32.8241 120.471 30.0757C120.471 27.3273 118.125 25.601 115.738 25.601ZM87.6005 38.374C86.1125 38.374 84.8677 37.1306 84.8677 35.4227C84.8677 33.6953 86.1125 32.4335 87.6005 32.4335C89.0685 32.4335 90.2213 33.6953 90.2213 35.4227C90.2213 37.1306 89.0685 38.374 87.6005 38.374ZM90.0725 31.598H89.9981C89.5149 31.023 88.5845 30.5021 87.4141 30.5021C84.9597 30.5021 82.7093 32.6559 82.7093 35.4227C82.7093 38.17 84.9597 40.3054 87.4141 40.3054C88.5845 40.3054 89.5149 39.7857 89.9981 39.1911H90.0725V39.8963C90.0725 41.7723 89.0685 42.7738 87.4517 42.7738C86.1309 42.7738 85.3125 41.8277 84.9781 41.0291L83.1005 41.8092C83.6397 43.108 85.0701 44.7052 87.4517 44.7052C89.9797 44.7052 92.1181 43.2198 92.1181 39.599V30.7994H90.0725V31.598ZM93.6061 40.0081H95.7621V25.6022H93.6061V40.0081ZM98.9413 35.2556C98.8861 33.3611 100.41 32.3966 101.507 32.3966C102.363 32.3966 103.088 32.8241 103.33 33.436L98.9413 35.2556ZM105.635 33.6215C105.225 32.5268 103.98 30.5021 101.433 30.5021C98.9045 30.5021 96.8029 32.4888 96.8029 35.4043C96.8029 38.1516 98.8861 40.3054 101.674 40.3054C103.924 40.3054 105.225 38.9318 105.765 38.1331L104.092 37.0188C103.533 37.8359 102.772 38.374 101.674 38.374C100.578 38.374 99.7965 37.8727 99.2957 36.8886L105.857 34.1782L105.635 33.6215ZM53.3461 32.0071V34.086H58.3283C58.1805 35.2556 57.7893 36.1095 57.1949 36.7031C56.4691 37.4279 55.3346 38.2265 53.3461 38.2265C50.2774 38.2265 47.8792 35.757 47.8792 32.6939C47.8792 29.6309 50.2774 27.1602 53.3461 27.1602C55.0011 27.1602 56.2094 27.8101 57.1015 28.6467L58.5706 27.1798C57.3242 25.9916 55.6704 25.0813 53.3461 25.0813C49.143 25.0813 45.6104 28.4981 45.6104 32.6939C45.6104 36.8886 49.143 40.3054 53.3461 40.3054C55.6139 40.3054 57.3242 39.5621 58.6629 38.17C60.0386 36.7964 60.4668 34.865 60.4668 33.3059C60.4668 32.8241 60.4298 32.3782 60.3548 32.0071H53.3461ZM66.131 38.374C64.6445 38.374 63.3612 37.149 63.3612 35.4043C63.3612 33.64 64.6445 32.4335 66.131 32.4335C67.6186 32.4335 68.9019 33.64 68.9019 35.4043C68.9019 37.149 67.6186 38.374 66.131 38.374ZM66.131 30.5021C63.4166 30.5021 61.2042 32.5637 61.2042 35.4043C61.2042 38.2265 63.4166 40.3054 66.131 40.3054C68.8465 40.3054 71.0588 38.2265 71.0588 35.4043C71.0588 32.5637 68.8465 30.5021 66.131 30.5021ZM76.88 38.374C75.3924 38.374 74.1091 37.149 74.1091 35.4043C74.1091 33.64 75.3924 32.4335 76.88 32.4335C78.3676 32.4335 79.6498 33.64 79.6498 35.4043C79.6498 37.149 78.3676 38.374 76.88 38.374ZM76.88 30.5021C74.1656 30.5021 71.9532 32.5637 71.9532 35.4043C71.9532 38.2265 74.1656 40.3054 76.88 40.3054C79.5944 40.3054 81.8069 38.2265 81.8069 35.4043C81.8069 32.5637 79.5944 30.5021 76.88 30.5021Z" fill="white"/>
<path d="M30.2564 24.3108L13.1746 14.5649C12.4478 14.1513 11.6198 14.3115 11.0759 14.8058L25.3954 29.1549L30.2564 24.3108Z" fill="url(#paint0_linear_1808_894)"/>
<path d="M11.0762 14.8064C10.7232 15.1267 10.4885 15.5854 10.4885 16.1292V42.2821C10.4885 42.7764 10.684 43.2005 10.9842 43.5162L25.3957 29.1544L11.0762 14.8064Z" fill="url(#paint1_linear_1808_894)"/>
<path d="M10.9839 43.5163C11.522 44.0809 12.4076 44.2861 13.1768 43.8459L30.2828 34.0517L25.3953 29.1545L10.9839 43.5163Z" fill="url(#paint2_linear_1808_894)"/>
<path d="M36.0524 27.618L30.2553 24.311L25.3955 29.154L30.2817 34.0511L36.0546 30.7453C37.2633 30.0539 37.2609 28.3082 36.0524 27.618Z" fill="url(#paint3_linear_1808_894)"/>
</g>
</g>
</g>
</g>
<defs>
<linearGradient id="paint0_linear_1808_894" x1="22.3254" y1="21.7417" x2="14.3802" y2="16.9291" gradientUnits="userSpaceOnUse">
<stop stop-color="#00F076"/>
<stop offset="1" stop-color="#0BE070"/>
</linearGradient>
<linearGradient id="paint1_linear_1808_894" x1="16.9432" y1="26.4583" x2="19.4013" y2="23.7991" gradientUnits="userSpaceOnUse">
<stop stop-color="#00E2FF"/>
<stop offset="1" stop-color="#01C4F7"/>
</linearGradient>
<linearGradient id="paint2_linear_1808_894" x1="13.918" y1="39.2831" x2="20.1728" y2="36.4446" gradientUnits="userSpaceOnUse">
<stop stop-color="#EB214E"/>
<stop offset="1" stop-color="#FF5136"/>
</linearGradient>
<linearGradient id="paint3_linear_1808_894" x1="31.1777" y1="29.181" x2="25.3955" y2="29.181" gradientUnits="userSpaceOnUse">
<stop stop-color="#FFD902"/>
<stop offset="1" stop-color="#FFBD00"/>
</linearGradient>
<clipPath id="clip0_1808_894">
<rect width="154.39" height="56" fill="white" transform="translate(0.0246582 0.731934)"/>
</clipPath>
<clipPath id="clip1_1808_894">
<rect width="154.39" height="56" fill="white" transform="translate(0.0246582 0.731934)"/>
</clipPath>
<clipPath id="clip2_1808_894">
<rect width="154.4" height="56" fill="white" transform="translate(0.0197754 0.731934)"/>
</clipPath>
</defs>
</svg>
