<svg width="243" height="258" viewBox="0 0 243 258" fill="none" xmlns="http://www.w3.org/2000/svg">
<path d="M133.962 163.208L129.762 155.873L125.575 163.212L121.384 170.546L129.77 170.538H138.161L133.962 163.208Z" stroke="#99F5C8" stroke-width="0.399786" stroke-miterlimit="10"/>
<path d="M182.091 190.725L177.892 183.395L173.704 190.729L169.513 198.068L177.904 198.06L186.291 198.056L182.091 190.725Z" stroke="#99F5C8" stroke-width="0.399786" stroke-miterlimit="10"/>
<path d="M209.776 134.443L211.944 126.26L203.845 128.46L195.738 130.656L201.677 136.639L207.612 142.625L209.776 134.443Z" stroke="#99F5C8" stroke-width="0.399786" stroke-miterlimit="10"/>
<path d="M71.8221 39.4654L73.9898 31.2832L65.8908 33.4832L57.7878 35.6791L63.7231 41.6613L69.6583 47.6436L71.8221 39.4654Z" stroke="#99F5C8" stroke-width="0.399786" stroke-miterlimit="10"/>
<path d="M66.0778 216.232L68.2455 208.05L60.1465 210.25L52.0396 212.446L57.9788 218.428L63.9141 224.414L66.0778 216.232Z" stroke="#99F5C8" stroke-width="0.399786" stroke-miterlimit="10"/>
<path d="M218.275 48.6042L225.539 44.3657L218.271 40.1394L211.004 35.9091L211.008 44.3738L211.012 52.8426L218.275 48.6042Z" stroke="#99F5C8" stroke-width="0.399786" stroke-miterlimit="10"/>
<path d="M65.894 133.191L73.1571 128.953L65.89 124.726L58.6189 120.496L58.6269 128.961L58.6309 137.43L65.894 133.191Z" stroke="#99F5C8" stroke-width="0.399786" stroke-miterlimit="10"/>
<path d="M150.953 227.624C150.953 224.075 153.804 221.201 157.316 221.201C160.827 221.201 163.679 224.075 163.679 227.624" stroke="#99F5C8" stroke-width="0.399786" stroke-miterlimit="10"/>
<path d="M100.15 128.965C100.15 125.417 103.001 122.543 106.513 122.543C110.024 122.543 112.876 125.417 112.876 128.965" stroke="#99F5C8" stroke-width="0.399786" stroke-miterlimit="10"/>
<path d="M33.1951 76.8081C33.1951 73.2599 36.0307 70.3859 39.5303 70.3859C43.0298 70.3859 45.8655 73.2599 45.8655 76.8081" stroke="#99F5C8" stroke-width="0.399786" stroke-miterlimit="10"/>
<path d="M193.623 87.3275C190.107 87.3275 187.26 84.4656 187.26 80.9335C187.26 77.4015 190.107 74.5396 193.623 74.5396" stroke="#99F5C8" stroke-width="0.399786" stroke-miterlimit="10"/>
<path d="M40.37 237.194C36.8545 237.194 34.0068 234.332 34.0068 230.8C34.0068 227.268 36.8545 224.406 40.37 224.406" stroke="#99F5C8" stroke-width="0.399786" stroke-miterlimit="10"/>
<path d="M108.665 32.906C105.149 32.906 102.302 30.044 102.302 26.512C102.302 22.98 105.149 20.118 108.665 20.118" stroke="#99F5C8" stroke-width="0.399786" stroke-miterlimit="10"/>
<path d="M234.869 74.5435H222.211V87.3193H234.869V74.5435Z" stroke="#99F5C8" stroke-width="0.399786" stroke-miterlimit="10"/>
<path d="M91.7304 80.9336H79.072V93.7094H91.7304V80.9336Z" stroke="#99F5C8" stroke-width="0.399786" stroke-miterlimit="10"/>
<path d="M91.0949 162.509H78.4365V175.285H91.0949V162.509Z" stroke="#99F5C8" stroke-width="0.399786" stroke-miterlimit="10"/>
<path d="M234.869 224.414H222.211V237.19H234.869V224.414Z" stroke="#99F5C8" stroke-width="0.399786" stroke-miterlimit="10"/>
<path d="M182.352 20.1218H169.694V32.8977H182.352V20.1218Z" stroke="#99F5C8" stroke-width="0.399786" stroke-miterlimit="10"/>
<path d="M151.5 150.044C148.736 150.044 149.212 145.099 145.685 145.099" stroke="#99F5C8" stroke-width="0.399786" stroke-miterlimit="10"/>
<path d="M163.131 150.044C160.368 150.044 160.844 145.099 157.316 145.099" stroke="#99F5C8" stroke-width="0.399786" stroke-miterlimit="10"/>
<path d="M151.5 150.044C154.264 150.044 153.788 145.099 157.316 145.099" stroke="#99F5C8" stroke-width="0.399786" stroke-miterlimit="10"/>
<path d="M163.13 150.044C165.894 150.044 165.418 145.099 168.945 145.099" stroke="#99F5C8" stroke-width="0.399786" stroke-miterlimit="10"/>
<path d="M184.623 242.172C181.859 242.172 182.335 237.223 178.808 237.223" stroke="#99F5C8" stroke-width="0.399786" stroke-miterlimit="10"/>
<path d="M196.254 242.171C193.491 242.171 193.967 237.227 190.439 237.227" stroke="#99F5C8" stroke-width="0.399786" stroke-miterlimit="10"/>
<path d="M184.624 242.171C187.387 242.171 186.911 237.227 190.439 237.227" stroke="#99F5C8" stroke-width="0.399786" stroke-miterlimit="10"/>
<path d="M196.253 242.171C199.017 242.171 198.541 237.223 202.068 237.227" stroke="#99F5C8" stroke-width="0.399786" stroke-miterlimit="10"/>
<path d="M200.482 109.351C197.718 109.351 198.194 104.406 194.667 104.406" stroke="#99F5C8" stroke-width="0.399786" stroke-miterlimit="10"/>
<path d="M212.108 109.351C209.345 109.351 209.821 104.406 206.293 104.406" stroke="#99F5C8" stroke-width="0.399786" stroke-miterlimit="10"/>
<path d="M200.482 109.351C203.246 109.351 202.77 104.406 206.297 104.406" stroke="#99F5C8" stroke-width="0.399786" stroke-miterlimit="10"/>
<path d="M212.109 109.351C214.873 109.351 214.397 104.406 217.924 104.406" stroke="#99F5C8" stroke-width="0.399786" stroke-miterlimit="10"/>
<path d="M152.463 37.1525C152.463 39.9418 147.563 39.4614 147.563 43.0217" stroke="#99F5C8" stroke-width="0.399786" stroke-miterlimit="10"/>
<path d="M152.463 25.4181C152.463 28.2074 147.563 27.727 147.563 31.2873" stroke="#99F5C8" stroke-width="0.399786" stroke-miterlimit="10"/>
<path d="M152.463 37.1524C152.463 34.3631 147.563 34.8435 147.563 31.2832" stroke="#99F5C8" stroke-width="0.399786" stroke-miterlimit="10"/>
<path d="M152.463 25.418C152.463 22.6288 147.563 23.1091 147.563 19.5488" stroke="#99F5C8" stroke-width="0.399786" stroke-miterlimit="10"/>
<path d="M116.811 98.5371C116.811 101.326 111.912 100.846 111.912 104.406" stroke="#99F5C8" stroke-width="0.399786" stroke-miterlimit="10"/>
<path d="M116.811 86.8029C116.811 89.5921 111.912 89.1118 111.912 92.6721" stroke="#99F5C8" stroke-width="0.399786" stroke-miterlimit="10"/>
<path d="M116.811 98.5372C116.811 95.7479 111.912 96.2283 111.912 92.668" stroke="#99F5C8" stroke-width="0.399786" stroke-miterlimit="10"/>
<path d="M116.811 86.8028C116.811 84.0135 111.912 84.4939 111.912 80.9336" stroke="#99F5C8" stroke-width="0.399786" stroke-miterlimit="10"/>
<path d="M213.452 196.598C213.452 199.387 208.553 198.907 208.553 202.467" stroke="#99F5C8" stroke-width="0.399786" stroke-miterlimit="10"/>
<path d="M213.452 184.864C213.452 187.653 208.553 187.173 208.553 190.733" stroke="#99F5C8" stroke-width="0.399786" stroke-miterlimit="10"/>
<path d="M213.452 196.598C213.452 193.809 208.553 194.289 208.553 190.729" stroke="#99F5C8" stroke-width="0.399786" stroke-miterlimit="10"/>
<path d="M213.452 184.864C213.452 182.074 208.553 182.555 208.553 178.994" stroke="#99F5C8" stroke-width="0.399786" stroke-miterlimit="10"/>
<path d="M93.5476 205.846C93.5476 208.635 88.6482 208.155 88.6482 211.715" stroke="#99F5C8" stroke-width="0.399786" stroke-miterlimit="10"/>
<path d="M93.5476 194.112C93.5476 196.901 88.6482 196.421 88.6482 199.981" stroke="#99F5C8" stroke-width="0.399786" stroke-miterlimit="10"/>
<path d="M93.5476 205.846C93.5476 203.057 88.6482 203.537 88.6482 199.977" stroke="#99F5C8" stroke-width="0.399786" stroke-miterlimit="10"/>
<path d="M93.5473 194.112C93.5473 191.323 88.6479 191.803 88.6479 188.243" stroke="#99F5C8" stroke-width="0.399786" stroke-miterlimit="10"/>
<path d="M165.434 163.212H179.78" stroke="#99F5C8" stroke-width="0.399786" stroke-miterlimit="10"/>
<path d="M24.3997 121.372H38.7458" stroke="#99F5C8" stroke-width="0.399786" stroke-miterlimit="10"/>
<path d="M166.505 54.0698H180.851" stroke="#99F5C8" stroke-width="0.399786" stroke-miterlimit="10"/>
<path d="M223.054 21.3937H237.401" stroke="#99F5C8" stroke-width="0.399786" stroke-miterlimit="10"/>
<path d="M81.5925 237.194H95.9387" stroke="#99F5C8" stroke-width="0.399786" stroke-miterlimit="10"/>
<path d="M118.427 209.225L128.574 198.984" stroke="#99F5C8" stroke-width="0.399786" stroke-miterlimit="10"/>
<path d="M34.4583 31.6305L44.601 21.3937" stroke="#99F5C8" stroke-width="0.399786" stroke-miterlimit="10"/>
<path d="M230.226 136.586L240.372 126.349" stroke="#99F5C8" stroke-width="0.399786" stroke-miterlimit="10"/>
<path d="M233.973 167.575C236.457 170.082 236.457 174.151 233.973 176.657C231.489 179.164 227.458 179.164 224.97 176.657C222.487 174.151 222.487 170.082 224.97 167.575C227.454 165.068 231.485 165.068 233.969 167.575H233.973Z" stroke="#99F5C8" stroke-width="0.399786" stroke-miterlimit="10"/>
<path d="M234.138 176.827L238.781 181.509" stroke="#99F5C8" stroke-width="0.399786" stroke-miterlimit="10"/>
<path d="M42.8647 170.905L47.5042 175.592" stroke="#99F5C8" stroke-width="0.399786" stroke-miterlimit="10"/>
<path d="M129.103 230.522C131.586 233.029 131.586 237.098 129.103 239.604C126.619 242.111 122.588 242.111 120.1 239.604C117.612 237.098 117.616 233.029 120.1 230.522C122.584 228.015 126.615 228.015 129.099 230.522H129.103Z" stroke="#99F5C8" stroke-width="0.399786" stroke-miterlimit="10"/>
<path d="M129.267 239.77L133.907 244.456" stroke="#99F5C8" stroke-width="0.399786" stroke-miterlimit="10"/>
<path d="M159.319 108.467C161.803 110.974 161.803 115.043 159.319 117.549C156.836 120.056 152.804 120.056 150.317 117.549C147.833 115.043 147.833 110.974 150.317 108.467C152.8 105.96 156.832 105.96 159.315 108.467H159.319Z" stroke="#99F5C8" stroke-width="0.399786" stroke-miterlimit="10"/>
<path d="M159.484 117.719L164.127 122.401" stroke="#99F5C8" stroke-width="0.399786" stroke-miterlimit="10"/>
<path d="M147.848 73.595L143.645 66.2605L139.461 73.595L135.27 80.9335L143.657 80.9255L152.048 80.9214L147.848 73.595Z" stroke="#99F5C8" stroke-width="0.399786" stroke-miterlimit="10"/>
<path d="M93.392 58.9584L87.2927 53.186" stroke="white" stroke-width="1.59915" stroke-miterlimit="10"/>
<path d="M87.48 59.1522L93.2033 52.9923" stroke="white" stroke-width="1.59915" stroke-miterlimit="10"/>
<path d="M100.399 147.537L94.2998 141.761" stroke="white" stroke-width="1.59915" stroke-miterlimit="10"/>
<path d="M94.4873 147.727L100.211 141.572" stroke="white" stroke-width="1.59915" stroke-miterlimit="10"/>
<path d="M26.173 197.026L20.0737 191.25" stroke="white" stroke-width="1.59915" stroke-miterlimit="10"/>
<path d="M20.2612 197.216L25.9845 191.06" stroke="white" stroke-width="1.59915" stroke-miterlimit="10"/>
<path d="M23.5087 50.5302L17.4094 44.7578" stroke="white" stroke-width="1.59915" stroke-miterlimit="10"/>
<path d="M17.5969 50.7238L23.3202 44.568" stroke="white" stroke-width="1.59915" stroke-miterlimit="10"/>
<path d="M240.45 58.8092L234.35 53.0328" stroke="white" stroke-width="1.59915" stroke-miterlimit="10"/>
<path d="M234.538 58.999L240.261 52.8431" stroke="white" stroke-width="1.59915" stroke-miterlimit="10"/>
<path d="M168.487 90.2141L162.384 84.4418" stroke="white" stroke-width="1.59915" stroke-miterlimit="10"/>
<path d="M162.576 90.4078L168.295 84.252" stroke="white" stroke-width="1.59915" stroke-miterlimit="10"/>
<path d="M198.226 158.759L192.127 152.987" stroke="white" stroke-width="1.59915" stroke-miterlimit="10"/>
<path d="M192.314 158.953L198.038 152.797" stroke="white" stroke-width="1.59915" stroke-miterlimit="10"/>
<path d="M193.487 214.597L187.388 208.825" stroke="white" stroke-width="1.59915" stroke-miterlimit="10"/>
<path d="M187.575 214.791L193.298 208.635" stroke="white" stroke-width="1.59915" stroke-miterlimit="10"/>
<path d="M138.722 68.2023L134.523 60.8678L130.335 68.2063L126.144 75.5408L134.531 75.5328L142.922 75.5287L138.722 68.2023Z" stroke="white" stroke-width="1.59915" stroke-miterlimit="10"/>
<path d="M124.836 157.815L120.636 150.484L116.449 157.819L112.257 165.153L120.644 165.149L129.035 165.145L124.836 157.815Z" stroke="white" stroke-width="1.59915" stroke-miterlimit="10"/>
<path d="M172.969 185.332L168.766 178.002L164.582 185.336L160.391 192.675L168.778 192.667L177.169 192.663L172.969 185.332Z" stroke="white" stroke-width="1.59915" stroke-miterlimit="10"/>
<path d="M200.65 129.05L202.818 120.868L194.719 123.068L186.616 125.264L192.551 131.246L198.486 137.232L200.65 129.05Z" stroke="white" stroke-width="1.59915" stroke-miterlimit="10"/>
<path d="M56.952 210.839L59.1197 202.657L51.0207 204.857L42.9177 207.053L48.853 213.035L54.7882 219.022L56.952 210.839Z" stroke="white" stroke-width="1.59915" stroke-miterlimit="10"/>
<path d="M209.153 43.2116L216.416 38.9732L209.149 34.7468L201.878 30.5165L201.886 38.9812L201.89 47.45L209.153 43.2116Z" stroke="white" stroke-width="1.59915" stroke-miterlimit="10"/>
<path d="M56.7692 127.799L64.0323 123.56L56.7652 119.334L49.4941 115.104L49.5021 123.572L49.5061 132.037L56.7692 127.799Z" stroke="white" stroke-width="1.59915" stroke-miterlimit="10"/>
<path d="M141.826 222.231C141.826 218.683 144.678 215.809 148.189 215.809C151.701 215.809 154.552 218.683 154.552 222.231" stroke="white" stroke-width="1.59915" stroke-miterlimit="10"/>
<path d="M91.0283 123.572C91.0283 120.024 93.88 117.15 97.3915 117.15C100.903 117.15 103.755 120.024 103.755 123.572" stroke="white" stroke-width="1.59915" stroke-miterlimit="10"/>
<path d="M24.0686 71.4155C24.0686 67.8673 26.9042 64.9933 30.4038 64.9933C33.9034 64.9933 36.739 67.8673 36.739 71.4155" stroke="white" stroke-width="1.59915" stroke-miterlimit="10"/>
<path d="M184.496 81.9348C180.981 81.9348 178.133 79.0728 178.133 75.5408C178.133 72.0088 180.981 69.1469 184.496 69.1469" stroke="white" stroke-width="1.59915" stroke-miterlimit="10"/>
<path d="M99.5385 27.5132C96.0229 27.5132 93.1753 24.6512 93.1753 21.1192C93.1753 17.5872 96.0229 14.7252 99.5385 14.7252" stroke="white" stroke-width="1.59915" stroke-miterlimit="10"/>
<path d="M225.743 69.1509H213.085V81.9267H225.743V69.1509Z" stroke="white" stroke-width="1.59915" stroke-miterlimit="10"/>
<path d="M82.6054 75.5409H69.947V88.3167H82.6054V75.5409Z" stroke="white" stroke-width="1.59915" stroke-miterlimit="10"/>
<path d="M81.9702 157.116H69.3118V169.892H81.9702V157.116Z" stroke="white" stroke-width="1.59915" stroke-miterlimit="10"/>
<path d="M225.743 219.022H213.085V231.798H225.743V219.022Z" stroke="white" stroke-width="1.59915" stroke-miterlimit="10"/>
<path d="M173.226 14.7295H160.567V27.5053H173.226V14.7295Z" stroke="white" stroke-width="1.59915" stroke-miterlimit="10"/>
<path d="M142.379 144.652C139.615 144.652 140.091 139.707 136.563 139.707" stroke="white" stroke-width="1.59915" stroke-miterlimit="10"/>
<path d="M154.005 144.652C151.241 144.652 151.717 139.707 148.19 139.707" stroke="white" stroke-width="1.59915" stroke-miterlimit="10"/>
<path d="M142.379 144.652C145.142 144.652 144.666 139.707 148.194 139.707" stroke="white" stroke-width="1.59915" stroke-miterlimit="10"/>
<path d="M154.005 144.652C156.769 144.652 156.293 139.707 159.82 139.707" stroke="white" stroke-width="1.59915" stroke-miterlimit="10"/>
<path d="M175.501 236.779C172.738 236.779 173.214 231.83 169.686 231.83" stroke="white" stroke-width="1.59915" stroke-miterlimit="10"/>
<path d="M187.128 236.779C184.364 236.779 184.84 231.834 181.312 231.834" stroke="white" stroke-width="1.59915" stroke-miterlimit="10"/>
<path d="M175.502 236.779C178.265 236.779 177.789 231.834 181.317 231.834" stroke="white" stroke-width="1.59915" stroke-miterlimit="10"/>
<path d="M187.128 236.779C189.892 236.779 189.416 231.83 192.944 231.834" stroke="white" stroke-width="1.59915" stroke-miterlimit="10"/>
<path d="M191.355 103.959C188.592 103.959 189.068 99.0137 185.54 99.0137" stroke="white" stroke-width="1.59915" stroke-miterlimit="10"/>
<path d="M202.982 103.958C200.218 103.958 200.694 99.0135 197.167 99.0135" stroke="white" stroke-width="1.59915" stroke-miterlimit="10"/>
<path d="M191.356 103.958C194.12 103.958 193.644 99.0135 197.171 99.0135" stroke="white" stroke-width="1.59915" stroke-miterlimit="10"/>
<path d="M202.982 103.958C205.746 103.958 205.27 99.0135 208.797 99.0135" stroke="white" stroke-width="1.59915" stroke-miterlimit="10"/>
<path d="M143.338 31.7599C143.338 34.5492 138.439 34.0688 138.439 37.6291" stroke="white" stroke-width="1.59915" stroke-miterlimit="10"/>
<path d="M143.338 20.0254C143.338 22.8147 138.439 22.3343 138.439 25.8946" stroke="white" stroke-width="1.59915" stroke-miterlimit="10"/>
<path d="M143.338 31.7597C143.338 28.9704 138.439 29.4508 138.439 25.8905" stroke="white" stroke-width="1.59915" stroke-miterlimit="10"/>
<path d="M143.338 20.0256C143.338 17.2363 138.439 17.7167 138.439 14.1564" stroke="white" stroke-width="1.59915" stroke-miterlimit="10"/>
<path d="M107.687 93.1445C107.687 95.9338 102.787 95.4535 102.787 99.0137" stroke="white" stroke-width="1.59915" stroke-miterlimit="10"/>
<path d="M107.687 81.4103C107.687 84.1996 102.787 83.7192 102.787 87.2795" stroke="white" stroke-width="1.59915" stroke-miterlimit="10"/>
<path d="M107.687 93.1445C107.687 90.3552 102.787 90.8356 102.787 87.2753" stroke="white" stroke-width="1.59915" stroke-miterlimit="10"/>
<path d="M107.687 81.4101C107.687 78.6208 102.787 79.1012 102.787 75.5409" stroke="white" stroke-width="1.59915" stroke-miterlimit="10"/>
<path d="M204.331 191.206C204.331 193.995 199.431 193.515 199.431 197.075" stroke="white" stroke-width="1.59915" stroke-miterlimit="10"/>
<path d="M204.331 179.471C204.331 182.26 199.431 181.78 199.431 185.34" stroke="white" stroke-width="1.59915" stroke-miterlimit="10"/>
<path d="M204.331 191.206C204.331 188.416 199.431 188.897 199.431 185.336" stroke="white" stroke-width="1.59915" stroke-miterlimit="10"/>
<path d="M204.331 179.471C204.331 176.682 199.431 177.162 199.431 173.602" stroke="white" stroke-width="1.59915" stroke-miterlimit="10"/>
<path d="M156.307 157.819H170.654" stroke="white" stroke-width="1.59915" stroke-miterlimit="10"/>
<path d="M157.38 48.6771H171.726" stroke="white" stroke-width="1.59915" stroke-miterlimit="10"/>
<path d="M213.928 16.001H228.274" stroke="white" stroke-width="1.59915" stroke-miterlimit="10"/>
<path d="M72.4663 231.802H86.8125" stroke="white" stroke-width="1.59915" stroke-miterlimit="10"/>
<path d="M109.306 203.832L119.448 193.591" stroke="white" stroke-width="1.59915" stroke-miterlimit="10"/>
<path d="M221.104 131.193L231.247 120.957" stroke="white" stroke-width="1.59915" stroke-miterlimit="10"/>
<path d="M145.893 192.098C144.721 192.84 143.173 192.485 142.437 191.302C141.697 190.12 142.053 188.558 143.221 187.815C144.393 187.072 145.941 187.427 146.677 188.61C147.413 189.793 147.061 191.355 145.893 192.098Z" stroke="white" stroke-width="1.59915" stroke-miterlimit="10"/>
<path d="M126.141 122.503C124.969 123.245 123.421 122.89 122.685 121.707C121.949 120.525 122.301 118.963 123.469 118.22C124.641 117.477 126.189 117.832 126.925 119.015C127.661 120.198 127.309 121.76 126.141 122.503Z" stroke="white" stroke-width="1.59915" stroke-miterlimit="10"/>
<path d="M35.7953 143.905C34.6234 144.647 33.0756 144.292 32.3397 143.11C31.6038 141.927 31.9557 140.365 33.1236 139.622C34.2954 138.879 35.8433 139.234 36.5792 140.417C37.3151 141.6 36.9631 143.162 35.7953 143.905Z" stroke="white" stroke-width="1.59915" stroke-miterlimit="10"/>
<path d="M61.4798 64.2665C60.308 65.0093 58.7602 64.6541 58.0243 63.4713C57.2884 62.2886 57.6403 60.7264 58.8082 59.9837C59.98 59.241 61.5278 59.5962 62.2637 60.7789C62.9996 61.9616 62.6477 63.5238 61.4798 64.2665Z" stroke="white" stroke-width="1.59915" stroke-miterlimit="10"/>
<path d="M199.375 63.0111C198.203 63.7538 196.655 63.3986 195.919 62.2158C195.183 61.0331 195.535 59.471 196.703 58.7282C197.875 57.9855 199.423 58.3407 200.159 59.5234C200.895 60.7061 200.543 62.2683 199.375 63.0111Z" stroke="white" stroke-width="1.59915" stroke-miterlimit="10"/>
<path d="M234.786 153.148C233.614 153.891 232.066 153.536 231.33 152.353C230.594 151.17 230.946 149.608 232.114 148.866C233.286 148.123 234.834 148.478 235.57 149.661C236.306 150.843 235.954 152.406 234.786 153.148Z" stroke="white" stroke-width="1.59915" stroke-miterlimit="10"/>
<path d="M226.423 168.04C228.906 170.546 228.906 174.615 226.423 177.122C223.939 179.629 219.907 179.629 217.42 177.122C214.936 174.615 214.936 170.546 217.42 168.04C219.903 165.533 223.935 165.533 226.419 168.04H226.423Z" stroke="white" stroke-width="1.59915" stroke-miterlimit="10"/>
<path d="M226.587 177.291L231.23 181.978" stroke="white" stroke-width="1.59915" stroke-miterlimit="10"/>
<path d="M121.552 230.986C124.036 233.493 124.036 237.562 121.552 240.069C119.068 242.576 115.037 242.576 112.549 240.069C110.065 237.562 110.065 233.493 112.549 230.986C115.033 228.48 119.064 228.48 121.548 230.986H121.552Z" stroke="white" stroke-width="1.59915" stroke-miterlimit="10"/>
<path d="M121.716 240.238L126.356 244.921" stroke="white" stroke-width="1.59915" stroke-miterlimit="10"/>
<path d="M151.769 108.932C154.252 111.438 154.252 115.507 151.769 118.014C149.285 120.521 145.254 120.521 142.766 118.014C140.282 115.507 140.282 111.438 142.766 108.932C145.25 106.425 149.281 106.425 151.765 108.932H151.769Z" stroke="white" stroke-width="1.59915" stroke-miterlimit="10"/>
<path d="M151.933 118.183L156.577 122.87" stroke="white" stroke-width="1.59915" stroke-miterlimit="10"/>
</svg>
