<svg width="25" height="25" viewBox="0 0 25 25" fill="none" xmlns="http://www.w3.org/2000/svg">
<path d="M9.75 9.95398C11.53 10.604 13.47 10.604 15.25 9.95398" stroke="#ADADAD" stroke-width="1.5" stroke-linecap="round" stroke-linejoin="round"/>
<path d="M17.3199 2.90393H7.67995C5.54995 2.90393 3.81995 4.64393 3.81995 6.76393V20.8539C3.81995 22.6539 5.10995 23.4139 6.68995 22.5439L11.5699 19.8339C12.0899 19.5439 12.9299 19.5439 13.4399 19.8339L18.3199 22.5439C19.8999 23.4239 21.1899 22.6639 21.1899 20.8539V6.76393C21.1799 4.64393 19.4499 2.90393 17.3199 2.90393Z" stroke="#ADADAD" stroke-width="1.5" stroke-linecap="round" stroke-linejoin="round"/>
<path d="M17.3199 2.90393H7.67995C5.54995 2.90393 3.81995 4.64393 3.81995 6.76393V20.8539C3.81995 22.6539 5.10995 23.4139 6.68995 22.5439L11.5699 19.8339C12.0899 19.5439 12.9299 19.5439 13.4399 19.8339L18.3199 22.5439C19.8999 23.4239 21.1899 22.6639 21.1899 20.8539V6.76393C21.1799 4.64393 19.4499 2.90393 17.3199 2.90393Z" stroke="#ADADAD" stroke-linecap="round" stroke-linejoin="round"/>
</svg>
