<svg width="35" height="37" viewBox="0 0 35 37" fill="none" xmlns="http://www.w3.org/2000/svg">
<path d="M25.6213 15.3141L25.6213 23.0791C25.6213 23.1471 25.6066 23.1765 25.5966 23.1923C25.5843 23.2115 25.5498 23.2545 25.4529 23.3064L25.4528 23.3064C25.4461 23.31 25.4391 23.3137 25.4317 23.3173L25.4317 23.3174L19.2892 26.3886L19.2892 18.4802L25.6213 15.3141ZM17.6128 15.6044L11.6415 12.6188L17.5421 9.66848C17.5559 9.66159 17.5694 9.65426 17.5827 9.64651C17.5912 9.64641 17.6009 9.64639 17.6128 9.64639C17.6238 9.64639 17.6337 9.6464 17.6427 9.64642C17.656 9.6542 17.6696 9.66156 17.6834 9.66848L23.584 12.6188L17.6128 15.6044ZM13.7224 2.32015L14.0351 2.94564L13.7224 2.32015L5.97369 6.19451C3.0453 7.6587 1.29172 10.6145 1.29172 13.7809L1.29172 22.9825C1.29172 25.9751 2.90654 29.1713 6.14034 30.7006L13.8193 34.5401C15.0824 35.1716 16.4505 35.4289 17.6124 35.4289C18.9707 35.4289 20.2263 35.1297 21.4056 34.5401L29.1543 30.6657C31.8641 29.3108 33.9332 26.4835 33.9332 22.9825L33.9332 13.7809C33.9332 10.5677 32.1299 7.59821 29.0837 6.1592L21.4056 2.32015C18.9498 1.09223 16.1955 1.21461 13.9551 2.21031L14.2402 2.85179L13.9551 2.21031C13.8767 2.24516 13.7991 2.28178 13.7224 2.32015ZM15.9358 26.3954L9.74969 23.3436C9.7194 23.3167 9.68174 23.2718 9.64958 23.2106C9.6312 23.1757 9.61863 23.1428 9.61118 23.1159C9.60432 23.0912 9.60372 23.0785 9.60367 23.0785C9.60367 23.0785 9.60366 23.0785 9.60366 23.0786L9.60366 15.3141L15.9358 18.4802L15.9358 26.3954Z" fill="#1D3A70" stroke="white" stroke-width="1.41656" stroke-linejoin="round"/>
</svg>
