<svg width="16" height="16" viewBox="0 0 16 16" fill="none" xmlns="http://www.w3.org/2000/svg">
<path d="M15.2774 1.48839H9.44707V0H8.36022L0 1.4921V14.5116L8.31116 16H9.44707V14.5172H14.903C15.212 14.5023 15.5555 14.5265 15.8208 14.333C16.0334 14 15.9789 13.5832 15.9971 13.2074V2.21024C16.0353 1.78605 15.6918 1.44559 15.2774 1.48839ZM6.06297 10.5284C5.75947 10.6902 5.3051 10.5209 4.94525 10.547C4.70353 9.31536 4.42181 8.09117 4.20556 6.85397C3.99291 8.05582 3.71666 9.24648 3.47313 10.4409C3.12419 10.4223 2.77344 10.4 2.42266 10.3758C2.12094 8.73858 1.76656 7.11254 1.48484 5.47163C1.79563 5.45675 2.10822 5.44373 2.419 5.43257C2.60619 6.61769 2.81884 7.79722 2.98244 8.9842C3.23869 7.76743 3.50038 6.5507 3.75485 5.33397C4.10016 5.3135 4.44547 5.29862 4.79078 5.28001C5.0325 6.53583 5.27966 7.78976 5.54138 9.03999C5.74675 7.74885 5.97391 6.46139 6.19385 5.17211C6.55731 5.15909 6.92081 5.13861 7.28247 5.11628C6.87175 6.91907 6.51188 8.73676 6.06297 10.5284ZM15.1321 13.6336H9.44707V12.4651H14.1724V11.7209H9.44707V10.7907H14.1724V10.0465H9.44707V9.11625H14.1724V8.3721H9.44707V7.44184H14.1724V6.6977H9.44707V5.76744H14.1724V5.02326H9.44707V4.09303H14.1724V3.34885H9.44707V2.36644H15.1321V13.6336V13.6336Z" fill="#2471FF"/>
</svg>
