<svg width="16" height="16" viewBox="0 0 16 16" fill="none" xmlns="http://www.w3.org/2000/svg">
<path d="M6.74486 11.9911H1.92212" stroke="#3A4656" stroke-width="1.5" stroke-linecap="round" stroke-linejoin="round"/>
<path fill-rule="evenodd" clip-rule="evenodd" d="M14.0786 11.9911C14.0786 13.0515 13.219 13.9111 12.1586 13.9111C11.0983 13.9111 10.2386 13.0515 10.2386 11.9911C10.2386 10.9299 11.0983 10.0711 12.1586 10.0711C13.219 10.0711 14.0786 10.9299 14.0786 11.9911Z" stroke="#3A4656" stroke-width="1.5" stroke-linecap="round" stroke-linejoin="round"/>
<path d="M9.25525 4.17475H14.0788" stroke="#3A4656" stroke-width="1.5" stroke-linecap="round" stroke-linejoin="round"/>
<path fill-rule="evenodd" clip-rule="evenodd" d="M1.92175 4.17476C1.92175 5.23594 2.78136 6.09476 3.84175 6.09476C4.90215 6.09476 5.76175 5.23594 5.76175 4.17476C5.76175 3.11437 4.90215 2.25476 3.84175 2.25476C2.78136 2.25476 1.92175 3.11437 1.92175 4.17476Z" stroke="#3A4656" stroke-width="1.5" stroke-linecap="round" stroke-linejoin="round"/>
</svg>
