<svg width="8" height="9" viewBox="0 0 8 9" fill="none" xmlns="http://www.w3.org/2000/svg">
<path fill-rule="evenodd" clip-rule="evenodd" d="M3.83461 0.403931C4.81775 0.403931 5.76062 0.774145 6.4558 1.43313C7.15098 2.09211 7.54153 2.98589 7.54153 3.91784C7.54153 5.11803 6.85122 6.10036 6.12384 6.8051C5.76043 7.15339 5.36389 7.46916 4.93927 7.74838L4.76381 7.86161L4.68144 7.91354L4.52616 8.00724L4.38777 8.08728L4.21642 8.18177C4.10012 8.24469 3.96852 8.27779 3.83461 8.27779C3.7007 8.27779 3.5691 8.24469 3.4528 8.18177L3.28145 8.08728L3.06728 7.96234L2.9882 7.91354L2.81932 7.80695C2.36124 7.51316 1.93457 7.17761 1.54538 6.8051C0.817997 6.09997 0.127686 5.11803 0.127686 3.91784C0.127686 2.98589 0.518235 2.09211 1.21342 1.43313C1.9086 0.774145 2.85147 0.403931 3.83461 0.403931ZM3.83461 1.1848C3.06995 1.1848 2.3366 1.47274 1.79591 1.98529C1.25521 2.49783 0.951446 3.19299 0.951446 3.91784C0.951446 4.82442 1.47536 5.62013 2.13396 6.25888C2.41714 6.53062 2.72322 6.78002 3.04915 7.00461L3.23779 7.13189C3.29875 7.17223 3.35738 7.20972 3.41367 7.24433L3.5743 7.34194L3.71558 7.42354L3.83461 7.48953L4.02202 7.3845L4.17318 7.2947C4.25363 7.24629 4.33971 7.19202 4.43142 7.13189L4.62007 7.00461C4.946 6.78002 5.25208 6.53062 5.53526 6.25888C6.19386 5.62052 6.71777 4.82442 6.71777 3.91784C6.71777 3.19299 6.41401 2.49783 5.87331 1.98529C5.33262 1.47274 4.59927 1.1848 3.83461 1.1848ZM3.83461 2.3561C4.27156 2.3561 4.69061 2.52064 4.99958 2.81352C5.30855 3.1064 5.48213 3.50364 5.48213 3.91784C5.48213 4.33203 5.30855 4.72927 4.99958 5.02215C4.69061 5.31503 4.27156 5.47957 3.83461 5.47957C3.39766 5.47957 2.97861 5.31503 2.66964 5.02215C2.36067 4.72927 2.18709 4.33203 2.18709 3.91784C2.18709 3.50364 2.36067 3.1064 2.66964 2.81352C2.97861 2.52064 3.39766 2.3561 3.83461 2.3561ZM3.83461 3.13697C3.61613 3.13697 3.40661 3.21924 3.25212 3.36568C3.09764 3.51212 3.01085 3.71074 3.01085 3.91784C3.01085 4.12494 3.09764 4.32355 3.25212 4.46999C3.40661 4.61643 3.61613 4.6987 3.83461 4.6987C4.05308 4.6987 4.26261 4.61643 4.4171 4.46999C4.57158 4.32355 4.65837 4.12494 4.65837 3.91784C4.65837 3.71074 4.57158 3.51212 4.4171 3.36568C4.26261 3.21924 4.05308 3.13697 3.83461 3.13697Z" fill="black"/>
</svg>
