<svg width="43" height="15" viewBox="0 0 43 50" fill="none" xmlns="http://www.w3.org/2000/svg">
<path fill-rule="evenodd" clip-rule="evenodd" d="M27.8614 0.915527C27.9672 0.915527 28.071 0.924453 28.1719 0.941592L28.5041 0.943552C29.0056 0.943552 29.4849 1.14759 29.834 1.50897L42.2879 14.4816C42.6149 14.8233 42.7995 15.283 42.7995 15.7575V38.3495C42.8386 44.5175 38.0301 49.53 31.8523 49.7513H11.8415C5.84256 49.6223 1.03143 44.7748 0.883101 38.8369L0.882202 11.9544C1.02724 5.8553 6.06191 0.943552 12.1143 0.943552L27.551 0.941592C27.6519 0.924453 27.7556 0.915527 27.8614 0.915527ZM26.0162 4.63007L12.1217 4.63105C8.04825 4.63105 4.66558 7.93013 4.5697 11.9987V38.3495C4.4812 42.5312 7.77537 45.9728 11.9177 46.0638H31.7884C35.8913 45.9163 39.1388 42.5312 39.1119 38.3618L39.1118 18.0821L34.1744 18.0845C29.6732 18.0722 26.0177 14.4044 26.0177 9.91057L26.0162 4.63007ZM20.894 18.5145C21.4029 18.5145 21.8638 18.721 22.1976 19.0547L22.2001 19.0563L27.9674 24.8481C28.6852 25.5709 28.6828 26.7361 27.9625 27.454C27.2397 28.1718 26.072 28.1718 25.3542 27.449L22.7368 24.8204L22.7378 35.209C22.7378 36.2268 21.9118 37.0528 20.894 37.0528C19.8763 37.0528 19.0503 36.2268 19.0503 35.209L19.0493 24.8204L16.4353 27.449C16.0764 27.8129 15.602 27.9923 15.13 27.9923C14.6604 27.9923 14.1884 27.8129 13.8295 27.454C13.1092 26.7361 13.1043 25.5709 13.8246 24.8481L19.5869 19.0563L19.6692 18.9805C19.7047 18.9488 19.7415 18.9186 19.7795 18.8897L19.5869 19.0563C19.6555 18.9875 19.7293 18.9255 19.8073 18.8703C20.1109 18.6465 20.4871 18.5145 20.894 18.5145ZM29.7037 6.69753L29.7052 9.91057C29.7052 12.3787 31.7112 14.3896 34.1794 14.397L37.091 14.3946L29.7037 6.69753Z" fill="#282A37"/>
</svg>
