<svg width="24" height="25" viewBox="0 0 24 25" fill="none" xmlns="http://www.w3.org/2000/svg">
<path fill-rule="evenodd" clip-rule="evenodd" d="M20.8067 8.12361L20.1842 7.04352C19.6577 6.1296 18.4907 5.81432 17.5755 6.33872V6.33872C17.1399 6.59534 16.6201 6.66815 16.1307 6.54109C15.6413 6.41402 15.2226 6.09752 14.9668 5.66137C14.8023 5.38415 14.7139 5.06839 14.7105 4.74604V4.74604C14.7254 4.22922 14.5304 3.7284 14.17 3.35767C13.8096 2.98694 13.3145 2.77786 12.7975 2.77808H11.5435C11.037 2.77807 10.5513 2.97991 10.194 3.33895C9.83669 3.69798 9.63717 4.18459 9.63961 4.69112V4.69112C9.6246 5.73693 8.77248 6.57681 7.72657 6.5767C7.40421 6.57336 7.08846 6.48494 6.81123 6.32041V6.32041C5.89606 5.79601 4.72911 6.11129 4.20254 7.02522L3.53435 8.12361C3.00841 9.03639 3.3194 10.2026 4.23 10.7323V10.7323C4.8219 11.074 5.18653 11.7056 5.18653 12.3891C5.18653 13.0725 4.8219 13.7041 4.23 14.0458V14.0458C3.32056 14.5719 3.00923 15.7353 3.53435 16.6454V16.6454L4.16593 17.7346C4.41265 18.1798 4.8266 18.5083 5.31619 18.6474C5.80578 18.7866 6.33064 18.7249 6.77462 18.476V18.476C7.21108 18.2213 7.73119 18.1516 8.21934 18.2822C8.70749 18.4128 9.12324 18.733 9.37416 19.1717C9.5387 19.4489 9.62711 19.7646 9.63046 20.087V20.087C9.63046 21.1435 10.487 22 11.5435 22H12.7975C13.8505 22.0001 14.7055 21.1491 14.7105 20.0962V20.0962C14.7081 19.588 14.9089 19.1 15.2682 18.7407C15.6275 18.3814 16.1155 18.1807 16.6236 18.1831C16.9452 18.1917 17.2596 18.2798 17.5389 18.4394V18.4394C18.4517 18.9653 19.6179 18.6544 20.1476 17.7438V17.7438L20.8067 16.6454C21.0618 16.2075 21.1318 15.686 21.0012 15.1964C20.8706 14.7067 20.5502 14.2894 20.111 14.0367V14.0367C19.6718 13.784 19.3514 13.3666 19.2208 12.8769C19.0902 12.3873 19.1603 11.8658 19.4154 11.428C19.5812 11.1383 19.8214 10.8982 20.111 10.7323V10.7323C21.0161 10.2029 21.3264 9.04349 20.8067 8.13277V8.13277V8.12361Z" stroke="#0B72DA" stroke-width="1.5" stroke-linecap="round" stroke-linejoin="round"/>
<circle cx="12.175" cy="12.3891" r="2.63616" stroke="#0B72DA" stroke-width="1.5" stroke-linecap="round" stroke-linejoin="round"/>
</svg>
