<svg width="520" height="430" viewBox="0 0 520 430" fill="none" xmlns="http://www.w3.org/2000/svg">
<g clip-path="url(#clip0_1580_5467)">
<path d="M29.04 426.33C29.57 427.31 30.49 428.48 31.61 429.71H23.91C10.99 429.71 0.5 419.22 0.5 406.3V356.63L29.04 426.33Z" fill="white"/>
<path d="M273.06 428.12C273.59 428.62 274.12 429.15 274.65 429.71H116.3L194.51 250.21C196.18 248.93 203.91 267.4 204.75 269.24C228.3 321.81 250.04 375.3 273.06 428.12Z" fill="white"/>
<path d="M408.53 25.45L310.2 314.5C306.54 315.09 308 314.16 307.24 312.49C280.4 253.56 258.88 191.84 232.91 132.49C230.26 126.71 225.12 122.14 218.85 120.8C210.76 119.1 182.44 119.15 173.9 120.3C167.45 121.19 162.79 124.63 158.75 129.45L83.0198 314.5L79.8098 312.69C65.2198 286.21 54.2198 253.51 38.9598 227.84C35.9198 222.73 33.1798 218.63 27.0698 216.87C23.5498 215.87 12.4498 215.34 0.509773 215.14V23.97C0.499773 10.71 11.2198 0 24.4698 0H307.85C344.29 0 378.58 9.21 408.53 25.45Z" fill="white"/>
<path d="M519.5 211.65C519.5 271.86 495.08 326.39 455.63 365.84C430.02 391.46 398.09 410.71 362.35 421.06C400.94 309.14 439.87 197.08 477.14 84.6299C503.73 119.98 519.5 163.96 519.5 211.65Z" fill="white"/>
</g>
<defs>
<clipPath id="clip0_1580_5467">
<rect width="519" height="429.71" fill="white" transform="translate(0.5)"/>
</clipPath>
</defs>
</svg>
